<svg xmlns="http://www.w3.org/2000/svg" viewBox="0 10.15999984741211 174.5399932861328 48.970001220703125" data-asc="0.94091796875" width="174.5399932861328" height="48.970001220703125"><defs/><g fill="#ffffff"><g transform="translate(0, 0)"><path d="M0 47.05L0 45.95L3.76 45.70L3.76 13.55L0 13.31L0 12.21L13.26 12.21Q15.94 12.21 18.23 12.78Q20.51 13.35 22.34 14.51Q24.17 15.67 25.21 17.61Q26.25 19.56 26.25 22.09Q26.25 24.44 25.45 26.32Q24.66 28.20 23.32 29.47Q21.97 30.74 20.08 31.58Q18.19 32.42 16.08 32.80Q13.96 33.18 11.60 33.18Q11.08 33.18 10.01 33.13L10.01 45.70L13.77 45.95L13.77 47.05L0 47.05M10.01 31.74Q10.86 31.81 11.74 31.81Q19.75 31.81 19.75 22.05Q19.75 19.68 19.21 18.01Q18.68 16.33 17.66 15.42Q16.65 14.50 15.42 14.10Q14.18 13.70 12.60 13.70Q11.40 13.70 10.01 13.89L10.01 31.74ZM29.08 24.49L29.08 23.49L34.18 22.95L37.62 22.05L37.96 22.75L37.96 26.95L38.06 26.95Q38.55 25.98 39.26 25.05Q39.97 24.12 40.81 23.40Q41.65 22.68 42.60 22.24Q43.55 21.80 44.53 21.80Q46.44 21.80 47.47 22.81Q48.51 23.83 48.51 25.51Q48.51 26.22 48.29 26.82Q48.07 27.42 47.67 27.86Q47.27 28.30 46.69 28.55Q46.12 28.81 45.43 28.81Q44.70 28.81 44.12 28.56Q43.53 28.32 43.13 27.91Q42.72 27.49 42.50 26.94Q42.29 26.39 42.29 25.76Q42.29 24.46 42.82 23.85L42.82 23.71Q41.94 23.90 41.10 24.63Q40.26 25.37 39.58 26.62Q38.89 27.88 38.48 29.65Q38.06 31.42 38.06 33.64L38.06 45.80L40.58 46.04L40.58 47.05L29.57 47.05L29.57 46.04L32.08 45.80L32.08 24.49L29.08 24.49ZM50.61 34.94Q50.61 31.25 52.04 28.25Q53.47 25.24 56.04 23.52Q58.62 21.80 61.87 21.80Q64.55 21.80 66.71 22.91Q68.87 24.02 70.18 25.88Q71.48 27.73 72.18 30.02Q72.88 32.30 72.88 34.79Q72.88 38.38 71.51 41.33Q70.14 44.29 67.59 46.03Q65.04 47.78 61.82 47.78Q58.96 47.78 56.77 46.77Q54.59 45.75 53.26 43.96Q51.93 42.16 51.27 39.89Q50.61 37.62 50.61 34.94M56.86 34.64Q56.86 37.35 57.13 39.49Q57.40 41.63 57.96 43.27Q58.52 44.92 59.47 45.80Q60.42 46.68 61.72 46.68Q66.63 46.68 66.63 34.94Q66.63 31.98 66.39 29.86Q66.16 27.73 65.61 26.11Q65.06 24.49 64.09 23.69Q63.11 22.90 61.72 22.90Q60.42 22.90 59.47 23.78Q58.52 24.66 57.96 26.27Q57.40 27.88 57.13 29.96Q56.86 32.03 56.86 34.64ZM70.90 55.18Q70.90 54.57 71.12 54.02Q71.34 53.47 71.73 53.04Q72.12 52.61 72.66 52.37Q73.19 52.12 73.83 52.12Q74.49 52.12 75.01 52.36Q75.54 52.59 75.90 52.98Q76.27 53.37 76.45 53.91Q76.64 54.44 76.64 55.03Q76.64 55.32 76.55 55.66Q76.46 56.01 76.31 56.32Q76.15 56.64 75.92 56.92Q75.68 57.20 75.39 57.37L75.39 57.47Q75.73 58.03 76.59 58.03Q77.00 58.03 77.42 57.86Q77.83 57.69 78.17 57.17Q78.52 56.64 78.72 55.65Q78.93 54.66 78.93 53.03L78.93 24.49L75.93 24.49L75.93 23.49L81.03 22.95L84.50 22.05L84.94 22.75L84.94 48.14Q84.94 50.85 84.41 52.71Q83.89 54.57 83.04 55.79Q82.20 57.01 81.18 57.68Q80.15 58.35 79.15 58.68Q78.15 59.01 77.31 59.07Q76.46 59.13 75.98 59.13Q74.58 59.13 73.62 58.81Q72.66 58.50 72.06 57.96Q71.46 57.42 71.18 56.70Q70.90 55.98 70.90 55.18M78.61 13.38Q78.61 12.70 78.87 12.11Q79.13 11.52 79.57 11.08Q80.00 10.64 80.59 10.40Q81.18 10.16 81.84 10.16Q82.50 10.16 83.08 10.41Q83.67 10.67 84.12 11.11Q84.57 11.55 84.83 12.13Q85.08 12.72 85.08 13.38Q85.08 14.04 84.83 14.62Q84.57 15.21 84.13 15.66Q83.69 16.11 83.11 16.37Q82.52 16.63 81.84 16.63Q81.15 16.63 80.57 16.37Q79.98 16.11 79.54 15.67Q79.10 15.23 78.86 14.65Q78.61 14.06 78.61 13.38ZM90.48 34.79Q90.48 32.89 90.84 31.07Q91.21 29.25 92.04 27.56Q92.87 25.88 94.07 24.61Q95.26 23.34 97.03 22.57Q98.80 21.80 100.95 21.80Q102.98 21.80 104.59 22.38Q106.20 22.95 107.28 23.97Q108.35 25 109.06 26.48Q109.77 27.95 110.07 29.68Q110.38 31.40 110.38 33.45L109.72 34.06L96.73 34.06L96.73 35.55Q96.73 46.19 102.78 46.19Q107.08 46.19 109.64 41.89L110.60 42.48Q107.45 47.78 101.64 47.78Q96.02 47.78 93.25 44.31Q90.48 40.84 90.48 34.79M96.73 32.96L104.61 32.64Q104.69 31.40 104.69 30.25Q104.69 26.71 103.85 24.80Q103.00 22.90 101.05 22.90Q99.88 22.90 99.04 23.67Q98.19 24.44 97.73 25.88Q97.27 27.32 97.03 29.02Q96.80 30.71 96.73 32.96ZM114.45 34.94Q114.45 33.13 114.87 31.32Q115.28 29.52 116.20 27.80Q117.11 26.07 118.42 24.74Q119.73 23.41 121.66 22.61Q123.58 21.80 125.85 21.80Q129.25 21.80 131.48 23.71Q133.72 25.61 133.72 28.25Q133.72 29.57 132.89 30.48Q132.06 31.40 130.62 31.40Q129.27 31.40 128.42 30.54Q127.56 29.69 127.56 28.39Q127.56 27.17 128.36 26.29Q129.15 25.42 130.40 25.42Q130.57 25.42 131.01 25.46L131.01 25.34Q130.71 24.85 130.31 24.43Q129.91 24.00 128.93 23.51Q127.95 23.02 126.76 23.02Q124.61 23.02 123.22 24.63Q121.83 26.25 121.26 28.80Q120.70 31.35 120.70 34.84Q120.70 46.09 126.71 46.09Q127.49 46.09 128.16 45.96Q128.83 45.83 129.75 45.43Q130.66 45.04 131.57 44.12Q132.47 43.19 133.30 41.77L134.25 42.33Q131.25 47.78 125.66 47.78Q114.45 47.78 114.45 34.94ZM135.69 23.58L135.69 22.53L139.84 22.53L139.84 17.14L141.94 16.92L145.39 16.02L145.85 16.72L145.85 22.53L151.20 22.53L151.20 23.58L145.85 23.80L145.85 40.99Q145.85 42.48 146.20 43.47Q146.56 44.46 147.13 44.82Q147.71 45.19 148.06 45.29Q148.41 45.39 148.80 45.39Q149.56 45.39 150.26 45.06Q150.95 44.73 151.53 44.09Q152.10 43.46 152.47 42.93Q152.83 42.41 153.30 41.65L154.35 42.29Q153.05 44.43 152.10 45.41Q149.78 47.78 146.75 47.78Q145.61 47.78 144.71 47.62Q143.82 47.46 142.87 46.95Q141.92 46.44 141.28 45.57Q140.65 44.70 140.25 43.18Q139.84 41.65 139.84 39.60L139.84 23.80L135.69 23.58ZM164.18 46.58Q166.97 46.58 168.30 45.56Q169.63 44.53 169.63 42.99Q169.63 42.19 169.37 41.56Q169.12 40.94 168.54 40.37Q167.97 39.79 167.03 39.20Q166.09 38.60 164.70 37.84Q163.48 37.13 162.11 36.36Q160.74 35.60 159.58 34.58Q158.42 33.57 157.65 32.23Q156.88 30.88 156.88 29.00Q156.88 27.34 157.52 26.00Q158.15 24.66 159.29 23.72Q160.42 22.78 162.00 22.27Q163.57 21.75 165.45 21.75Q166.87 21.75 168.30 22.11Q169.73 22.46 170.87 23.17Q172.02 23.88 172.73 24.93Q173.44 25.98 173.44 27.37Q173.44 27.91 173.25 28.42Q173.07 28.93 172.71 29.35Q172.34 29.76 171.81 30.02Q171.29 30.27 170.61 30.27Q169.19 30.27 168.48 29.49Q167.77 28.71 167.77 27.59Q167.77 26.88 167.97 26.38Q168.16 25.88 168.49 25.55Q168.82 25.22 169.25 25.06Q169.68 24.90 170.12 24.90L170.34 24.90L170.34 24.85Q170.09 24.46 169.63 24.11Q169.17 23.75 168.53 23.47Q167.90 23.19 167.11 23.02Q166.33 22.85 165.45 22.85Q164.16 22.85 163.26 23.19Q162.35 23.54 161.78 24.06Q161.21 24.58 160.94 25.22Q160.67 25.85 160.67 26.44Q160.67 27.15 160.89 27.66Q161.11 28.17 161.66 28.70Q162.21 29.22 163.17 29.83Q164.14 30.44 165.60 31.30Q167.02 32.03 168.59 32.86Q170.17 33.69 171.48 34.78Q172.80 35.86 173.67 37.27Q174.54 38.67 174.54 40.55Q174.54 42.14 173.94 43.46Q173.34 44.78 172.08 45.73Q170.83 46.68 168.88 47.20Q166.94 47.73 164.28 47.73Q163.01 47.73 161.57 47.41Q160.13 47.09 158.91 46.40Q157.69 45.70 156.88 44.59Q156.08 43.48 156.08 41.87Q156.08 41.19 156.30 40.55Q156.52 39.92 156.92 39.42Q157.32 38.92 157.91 38.62Q158.50 38.33 159.25 38.33Q159.91 38.33 160.42 38.56Q160.94 38.79 161.29 39.17Q161.65 39.55 161.84 40.06Q162.04 40.58 162.06 41.16Q162.06 41.85 161.82 42.37Q161.57 42.90 161.18 43.24Q160.79 43.58 160.29 43.76Q159.79 43.95 159.30 43.95Q159.20 43.95 159.09 43.95Q158.98 43.95 158.89 43.92L158.89 43.97Q159.11 44.46 159.55 44.92Q159.99 45.39 160.66 45.75Q161.33 46.12 162.22 46.35Q163.11 46.58 164.18 46.58Z"/></g><g transform="translate(0, 63.671875)"><path d=""/></g></g></svg>