<svg xmlns="http://www.w3.org/2000/svg" viewBox="0.02500000223517418 0.25 163.4669189453125 41.15595245361328" data-asc="0.785" width="163.4669189453125" height="41.15595245361328"><defs/><g fill="#ffffff"><g transform="translate(0, 0)"><path d="M13.30 17.05Q13.35 17.10 13.35 17.27Q13.35 17.45 13.30 17.55Q12.85 19 11.75 19.60Q10.65 20.20 9.80 20.20Q8.75 20.20 7.65 20.02Q6.55 19.85 5.55 19.10Q5.45 19 5.30 18.90Q5.15 18.80 5.15 18.70Q5.15 18.55 5.30 18.47Q5.45 18.40 5.55 18.35Q6 18.25 6.72 18.17Q7.45 18.10 8.15 18.20Q8.65 18.30 9.35 18.30Q10.05 18.30 10.78 18.20Q11.50 18.10 12.10 17.88Q12.70 17.65 13 17.20Q13.15 17 13.30 17.05M13.65 15.50L13.50 15.75Q12.65 16.85 11.70 17.17Q10.75 17.50 9.70 17.45Q8.65 17.40 7.57 17.17Q6.50 16.95 5.45 16.90Q4.05 16.85 2.65 17.75Q1.25 18.65 0.25 20.90Q0.10 21.20 0.05 21.02Q0 20.85 0.05 20.70Q0.45 19.20 1.00 18.20Q1.55 17.20 2.17 16.57Q2.80 15.95 3.50 15.65Q4.20 15.35 4.95 15.25Q5.80 12.40 6.28 9.67Q6.75 6.95 6.35 4.50Q6.35 4.30 6.35 4.30Q6.45 4.25 6.55 4.35Q6.65 4.45 6.65 4.50Q7.75 6.90 7.55 9.63Q7.35 12.35 6.55 15.35Q6.80 15.40 6.95 15.40Q7.10 15.40 7.30 15.40Q7.55 14.10 7.78 12.63Q8 11.15 8.13 9.80Q8.25 8.45 8.20 7.35Q8.15 6.25 7.85 5.70Q7.70 5.25 7.85 5.25Q7.95 5.25 8 5.35Q8.05 5.45 8.15 5.55Q8.85 6.25 9.25 7.45Q9.65 8.65 9.80 10Q9.95 11.35 9.90 12.67Q9.85 14 9.60 15L9.40 15.80Q9.55 15.90 9.70 15.90Q9.85 15.90 10 15.95Q10.30 14.45 10.53 12.95Q10.75 11.45 10.70 9.80Q10.70 9.45 10.75 9.45Q10.85 9.45 10.90 9.60Q10.95 9.75 11 9.85Q11.60 10.95 11.58 12.60Q11.55 14.25 11.30 16.10Q12.40 16.10 13.40 15.50Q13.65 15.35 13.65 15.50M3.30 18.90Q3.30 19.15 3.02 19.40Q2.75 19.65 2.60 19.75Q2.35 19.95 2.03 20.22Q1.70 20.50 1.45 20.80Q1.20 21.20 0.97 21.50Q0.75 21.80 0.60 22.35Q0.55 22.45 0.47 22.52Q0.40 22.60 0.35 22.55Q0.20 22.40 0.35 21.90Q0.55 21.15 0.75 20.68Q0.95 20.20 1.50 19.65Q1.70 19.45 2 19.25Q2.30 19.05 2.60 18.90Q2.90 18.75 3.10 18.75Q3.30 18.75 3.30 18.90M7.20 39Q7.45 38.90 7.40 39.05Q7.35 39.20 7.25 39.25Q6.35 39.55 5.35 39.15Q4.35 38.75 3.50 37.90Q2.65 37.05 2.05 35.92Q1.45 34.80 1.30 33.70Q1.05 31.35 1.25 29.15Q1.45 26.95 2 24.80L2.85 21.65Q2.55 21.65 2.25 21.50Q1.90 21.40 1.90 21.25Q1.90 21.15 2.25 20.95Q3.65 20.25 5.08 20.35Q6.50 20.45 7.95 20.70Q8.85 20.85 9.78 20.93Q10.70 21 11.80 20.55Q11.90 20.45 12 20.50Q12.10 20.60 11.95 20.85Q11.65 21.50 11.10 21.80Q10.55 22.10 9.95 22.25Q9.55 23.55 9.25 24.57Q8.95 25.60 8.75 26.30Q8.20 28.70 7.47 31.17Q6.75 33.65 6.50 35.35Q6.40 35.90 6.30 35.95Q6.20 36 6.10 35.75Q6 35.50 5.95 35.35Q5.75 33.90 5.88 32.33Q6 30.75 6.35 29.10Q6.70 27.45 7.15 25.77Q7.60 24.10 8.10 22.40Q7.85 22.40 7.60 22.40Q7.35 22.40 7.10 22.35Q6.70 23.40 6.28 24.42Q5.85 25.45 5.45 26.35Q5.40 26.45 5.22 26.82Q5.05 27.20 4.95 27.20Q4.75 27.15 4.80 26.73Q4.85 26.30 4.85 26.15Q4.95 25.40 5.17 24.40Q5.40 23.40 5.60 22.25Q5.35 22.20 5.05 22.18Q4.75 22.15 4.45 22.05Q4.15 23.05 3.88 24Q3.60 24.95 3.35 25.90Q2.95 27.65 2.75 29.63Q2.55 31.60 2.75 33.70Q2.85 34.65 3.28 35.65Q3.70 36.65 4.30 37.45Q4.90 38.25 5.67 38.70Q6.45 39.15 7.20 39M7.65 37.90Q7.90 37.70 7.95 37.88Q8 38.05 7.75 38.20Q7.55 38.35 7.22 38.42Q6.90 38.50 6.50 38.45Q6.10 38.40 5.65 38.15Q5.20 37.90 4.80 37.35Q4.45 36.90 4.22 36.05Q4 35.20 3.90 34.38Q3.80 33.55 3.85 32.95Q3.90 32.35 4.10 32.35Q4.35 32.35 4.47 33.05Q4.60 33.75 4.70 34.20Q4.90 35 5.25 35.85Q5.60 36.70 6 37.20Q6.50 37.85 6.90 37.98Q7.30 38.10 7.65 37.90ZM21.40 12.90Q20.55 15.85 19.48 18.95Q18.40 22.05 17.25 24.80Q17.20 24.95 16.98 25.35Q16.75 25.75 16.60 25.70Q16.50 25.70 16.48 25.23Q16.45 24.75 16.50 24.50Q16.60 23.85 16.80 22.90Q17 21.95 17.23 20.95Q17.45 19.95 17.68 19Q17.90 18.05 18.15 17.35Q18.25 17.05 18.50 16.05Q18.75 15.05 19.05 13.65Q19.35 12.25 19.68 10.65Q20 9.05 20.23 7.55Q20.45 6.05 20.55 4.80Q20.65 3.55 20.50 2.90Q20.35 2.40 20.50 2.40Q20.60 2.40 20.68 2.52Q20.75 2.65 20.85 2.75Q21.35 3.65 21.63 4.95Q21.90 6.25 21.95 7.65Q22 9.05 21.85 10.45Q21.70 11.85 21.40 12.90M19.40 1.35Q20.05 3.90 19.73 6.70Q19.40 9.50 18.60 12.40Q17.80 15.30 16.80 18.27Q15.80 21.25 15.10 24.25Q14.65 26.15 14.38 28.17Q14.10 30.20 14.10 32.17Q14.10 34.15 14.43 35.98Q14.75 37.80 15.55 39.25Q15.65 39.45 15.63 39.55Q15.60 39.65 15.30 39.25Q14 37.75 13.38 35.85Q12.75 33.95 12.65 31.85Q12.55 29.75 12.85 27.50Q13.15 25.25 13.70 23.10Q14.45 20.10 15.38 17.20Q16.30 14.30 17.13 11.55Q17.95 8.80 18.50 6.23Q19.05 3.65 19.05 1.25Q19.05 1 19.10 1Q19.30 1 19.40 1.35M28.50 39.25Q26.65 38.40 25.55 36.60Q24.45 34.80 24.20 32.45Q23.95 30.15 24.20 28.63Q24.45 27.10 24.80 25.60Q24.85 25.40 25 24.92Q25.15 24.45 25.23 23.95Q25.30 23.45 25.23 23.07Q25.15 22.70 24.80 22.60Q24.10 22.45 23.20 23.22Q22.30 24 21.48 25.15Q20.65 26.30 19.98 27.52Q19.30 28.75 19.10 29.45Q18.65 30.90 18.15 32.20Q17.65 33.50 17.25 34.80Q17.10 35.35 17 35.30Q16.90 35.30 16.88 35.10Q16.85 34.90 16.85 34.65Q16.85 32.65 17.15 30.63Q17.45 28.60 17.98 26.60Q18.50 24.60 19.15 22.60Q19.80 20.60 20.40 18.55Q21.20 16 21.93 13.35Q22.65 10.70 22.90 7.65Q22.90 7.40 22.90 7.38Q22.90 7.35 22.95 7.35Q23.10 7.35 23.20 7.75Q23.45 8.40 23.43 9.57Q23.40 10.75 23.23 12.15Q23.05 13.55 22.73 15Q22.40 16.45 22.05 17.60Q23 16.60 24.30 16.05Q25.60 15.50 27.40 15.75Q29.45 16.05 30.55 17.22Q31.65 18.40 32.05 20.05Q32.45 21.70 32.27 23.57Q32.10 25.45 31.65 27.20Q31.25 28.55 30.90 29.57Q30.55 30.60 30.20 31.45Q29.85 32.30 29.60 33.05Q29.35 33.80 29.20 34.65Q29.10 35.20 29 35.20Q28.90 35.20 28.83 35Q28.75 34.80 28.70 34.60Q28.40 33.50 28.68 31.90Q28.95 30.30 29.40 28.52Q29.85 26.75 30.23 24.92Q30.60 23.10 30.52 21.55Q30.45 20 29.70 18.82Q28.95 17.65 27.15 17.20Q26.40 17 25.52 17.07Q24.65 17.15 23.88 17.47Q23.10 17.80 22.50 18.40Q21.90 19 21.70 19.80Q22.65 18.80 24.15 18.15Q25.65 17.50 27.05 17.95Q28.35 18.35 28.90 19.40Q29.45 20.45 29.55 21.25Q29.75 23 29.33 24.42Q28.90 25.85 28.35 27.15Q28.25 27.30 28.05 27.63Q27.85 27.95 27.75 27.90Q27.65 27.90 27.65 27.50Q27.65 27.10 27.70 26.90Q27.85 26.40 27.95 25.32Q28.05 24.25 28.02 23.10Q28 21.95 27.73 20.95Q27.45 19.95 26.85 19.60Q26.15 19.20 25.15 19.38Q24.15 19.55 23 20.60Q22 21.50 21.30 22.68Q20.60 23.85 20.10 25.75Q20.40 25.20 21.05 24.20Q21.70 23.20 22.52 22.30Q23.35 21.40 24.27 20.88Q25.20 20.35 26.05 20.75Q26.60 21.05 26.77 21.77Q26.95 22.50 26.88 23.40Q26.80 24.30 26.60 25.15Q26.40 26 26.25 26.50Q25.70 28 25.50 29.77Q25.30 31.55 25.52 33.25Q25.75 34.95 26.50 36.45Q27.25 37.95 28.70 39Q29.15 39.25 28.88 39.25Q28.60 39.25 28.50 39.25M29.80 38.85Q29.10 38.45 28.48 38Q27.85 37.55 27.25 36.25Q27 35.75 26.88 34.90Q26.75 34.05 26.73 33.27Q26.70 32.50 26.80 31.98Q26.90 31.45 27.05 31.50Q27.15 31.50 27.25 31.73Q27.35 31.95 27.40 32.25Q27.45 32.55 27.50 32.83Q27.55 33.10 27.55 33.20Q27.75 34.30 27.90 34.83Q28.05 35.35 28.30 35.95Q28.70 36.75 29.10 37.40Q29.50 38.05 30.10 38.60Q30.35 38.80 30.23 38.90Q30.10 39 29.80 38.85M17.15 39.25Q17.20 39.25 17.08 39.30Q16.95 39.35 16.60 39.25Q16.20 39.05 15.78 38.50Q15.35 37.95 15.10 36.35Q15 35.70 15 34.77Q15 33.85 15.07 33.02Q15.15 32.20 15.30 31.60Q15.45 31 15.65 31.05Q15.70 31.05 15.75 31.35Q15.80 31.65 15.85 32.02Q15.90 32.40 15.90 32.77Q15.90 33.15 15.90 33.30Q15.95 34.40 16.02 34.92Q16.10 35.45 16.25 36.35Q16.40 37.30 16.60 38.08Q16.80 38.85 17.15 39.25ZM47.90 18.85Q48.30 19.35 48.53 20.10Q48.75 20.85 48.70 21.72Q48.65 22.60 48.30 23.55Q47.95 24.50 47.20 25.40Q45.75 27.10 44.03 28.02Q42.30 28.95 40.90 28.95Q40.05 28.95 40.90 28.65Q41.35 28.50 41.98 28.17Q42.60 27.85 43.30 27.38Q44 26.90 44.73 26.25Q45.45 25.60 46.05 24.75Q47.05 23.35 47.23 22.02Q47.40 20.70 46.70 20Q46.10 19.40 45.30 19.32Q44.50 19.25 42.90 20.20Q41.45 21.05 40.30 22.30Q39.15 23.55 38.15 24.95Q37.60 25.65 37.43 25.65Q37.25 25.65 37.55 24.75Q38.15 23 39.23 21.50Q40.30 20 41.80 18.95Q42.90 18.20 43.83 17.90Q44.75 17.60 45.53 17.65Q46.30 17.70 46.90 18.02Q47.50 18.35 47.90 18.85M50.60 22.35Q50.40 23.55 49.98 24.38Q49.55 25.20 49.03 25.77Q48.50 26.35 47.98 26.70Q47.45 27.05 47.05 27.35Q46.85 27.50 46.75 27.40Q46.65 27.30 46.90 27.05Q47.80 26.30 48.73 25.02Q49.65 23.75 49.70 22.20Q49.70 19.55 48.40 18.15Q47.10 16.75 45.15 16.92Q43.20 17.10 41.10 18.45Q39.75 19.30 38.73 20.43Q37.70 21.55 36.95 22.82Q36.20 24.10 35.73 25.45Q35.25 26.80 35.05 28.15Q34.85 29.45 34.68 30.95Q34.50 32.45 34.68 33.90Q34.85 35.35 35.60 36.67Q36.35 38 37.95 38.95Q38.20 39.10 38.48 39.15Q38.75 39.20 38.75 39.25Q38.75 39.35 38.50 39.38Q38.25 39.40 37.95 39.30Q36.70 39.05 35.83 38.27Q34.95 37.50 34.40 36.50Q33.85 35.50 33.55 34.40Q33.25 33.30 33.20 32.40Q32.90 28.45 34.30 24.60Q34.60 23.80 35.08 22.80Q35.55 21.80 36.25 20.77Q36.95 19.75 37.90 18.77Q38.85 17.80 40.05 17.05Q41.20 16.35 42.45 16Q43.70 15.65 44.95 15.67Q46.20 15.70 47.30 16.13Q48.40 16.55 49.25 17.40Q50 18.20 50.42 19.45Q50.85 20.70 50.60 22.35M46.05 20.55Q46.65 21.25 46.20 22.72Q45.75 24.20 44.10 25.70Q43.20 26.55 42.35 27.07Q41.50 27.60 40.20 28Q39.65 29.90 39.50 31.75Q39.35 33.60 39.60 34.75Q39.65 35.20 39.93 35.63Q40.20 36.05 40.73 36.27Q41.25 36.50 42.10 36.45Q42.95 36.40 44.20 35.90Q44.55 35.75 44.63 35.83Q44.70 35.90 44.30 36.15Q43.40 36.85 42.40 37.13Q41.40 37.40 40.53 37.30Q39.65 37.20 39.03 36.70Q38.40 36.20 38.20 35.35Q37.80 33.60 37.85 31.70Q37.90 29.80 38.43 27.95Q38.95 26.10 39.93 24.48Q40.90 22.85 42.35 21.70Q45.05 19.55 46.05 20.55M45.55 36.50Q45.20 37 44.68 37.48Q44.15 37.95 43.48 38.33Q42.80 38.70 42.08 38.95Q41.35 39.20 40.60 39.20Q39.30 39.20 38.18 38.63Q37.05 38.05 36.45 36.30Q36.35 36.10 36.35 35.92Q36.35 35.75 36.45 35.75Q36.65 35.65 36.85 35.88Q37.05 36.10 37.25 36.35Q37.80 37 38.68 37.50Q39.55 38 40.35 38Q41.85 38 42.95 37.55Q44.05 37.10 45.05 36.35Q45.30 36.20 45.63 36.05Q45.95 35.90 45.55 36.50M44.85 21.90Q44.65 21.50 43.40 22.55Q42.25 23.45 41.58 24.63Q40.90 25.80 40.40 27.20Q41.35 26.75 42.15 26.17Q42.95 25.60 43.65 25.05Q44.40 24.40 44.75 23.35Q45.10 22.30 44.85 21.90ZM62.85 29.60Q64.45 31.05 65.85 32.67Q67.25 34.30 68.55 36.05Q68.60 36.15 68.83 36.42Q69.05 36.70 68.95 36.80Q68.90 36.85 68.58 36.73Q68.25 36.60 68.15 36.50Q67.75 36.25 67.22 35.85Q66.70 35.45 66.13 35Q65.55 34.55 65 34.08Q64.45 33.60 64.10 33.20Q63.85 33 62.90 32.17Q61.95 31.35 60.75 30.40Q59.55 29.45 58.30 28.65Q57.05 27.85 56.25 27.65Q56.10 27.60 55.82 27.50Q55.55 27.40 55.60 27.15Q56 25.25 56.60 23.45Q57.20 21.65 57.75 19.75Q58.45 17.40 59.07 14.95Q59.70 12.50 59.80 9.65Q59.80 9.40 59.85 9.40Q60 9.40 60.10 9.75Q60.70 11.10 60.60 13.25Q60.50 15.40 60.07 17.72Q59.65 20.05 59.02 22.18Q58.40 24.30 57.95 25.55L57.80 25.95Q59.65 24.70 61.65 23.45Q63.65 22.20 65.38 20.93Q67.10 19.65 68.38 18.27Q69.65 16.90 70.10 15.40Q70.40 14.40 70.03 13.40Q69.65 12.40 68.72 11.52Q67.80 10.65 66.40 10Q65 9.35 63.30 9.10Q61.05 8.80 58.75 8.95Q58.95 10.45 58.82 11.97Q58.70 13.50 58.45 14.60Q57.80 17.30 56.80 20.18Q55.80 23.05 54.75 25.55Q54.65 25.70 54.45 26.05Q54.25 26.40 54.10 26.35Q54 26.30 54.05 25.90Q54.10 25.50 54.10 25.35Q54.15 24.75 54.32 23.88Q54.50 23 54.67 22.05Q54.85 21.10 55.07 20.22Q55.30 19.35 55.50 18.70Q55.60 18.40 55.82 17.42Q56.05 16.45 56.30 15.10Q56.55 13.75 56.80 12.20Q57.05 10.65 57.20 9.20L56.50 9.30Q56.35 11.20 55.90 13.15Q55.45 15.10 54.88 17.07Q54.30 19.05 53.67 21.07Q53.05 23.10 52.60 25.05Q52.20 26.80 51.97 28.70Q51.75 30.60 51.82 32.45Q51.90 34.30 52.27 36.02Q52.65 37.75 53.50 39.15Q53.60 39.40 53.50 39.40Q53.40 39.40 53.25 39.25Q52 37.80 51.35 36Q50.70 34.20 50.52 32.23Q50.35 30.25 50.57 28.15Q50.80 26.05 51.25 24.05Q52.10 20.30 53.30 16.65Q54.50 13 55.30 9.60Q54.05 9.90 52.85 10.32Q51.65 10.75 50.60 11.25Q50.35 11.35 50.30 11.30Q50.25 11.25 50.35 11.13Q50.45 11 50.55 10.95Q53.05 8.90 56.65 8.05Q60.25 7.20 64 7.60Q65.95 7.85 67.58 8.70Q69.20 9.55 70.25 10.77Q71.30 12 71.63 13.50Q71.95 15 71.30 16.50Q70.55 18.25 68.92 19.75Q67.30 21.25 65.28 22.55Q63.25 23.85 61 24.95Q58.75 26.05 56.80 27Q57.60 27 58.45 27.25Q59.30 27.50 60.13 27.88Q60.95 28.25 61.67 28.70Q62.40 29.15 62.85 29.60M76.70 17.10Q75.95 19.70 74.42 21.52Q72.90 23.35 71.05 24.55Q69.20 25.75 67.30 26.38Q65.40 27 64 27.20Q63.60 27.30 63.27 27.27Q62.95 27.25 63 27.15Q62.90 27.05 63.22 26.95Q63.55 26.85 63.90 26.70Q66.60 25.70 69.10 24.10Q71.60 22.50 73.50 19.85Q74.40 18.60 74.85 16.95Q75.30 15.30 75.17 13.60Q75.05 11.90 74.33 10.30Q73.60 8.70 72.20 7.55Q70.55 6.15 68.60 5.35Q66.65 4.55 64.60 4.25Q62.55 3.95 60.45 4.13Q58.35 4.30 56.40 4.80Q56.05 4.90 56 4.92Q55.95 4.95 55.90 4.85Q55.90 4.80 56.30 4.50Q57.10 4 58.42 3.57Q59.75 3.15 61.42 3Q63.10 2.85 65.05 3.02Q67 3.20 69.05 3.95Q71.15 4.65 73 6.13Q74.85 7.60 75.95 9.75Q77 11.85 77.03 13.82Q77.05 15.80 76.70 17.10M51.30 8.95Q52.30 7.50 53.95 6.57Q55.60 5.65 57.55 5.20Q59.50 4.75 61.63 4.80Q63.75 4.85 65.75 5.30Q67.75 5.75 69.47 6.65Q71.20 7.55 72.35 8.85Q73.15 9.80 73.58 10.88Q74 11.95 74.03 13.07Q74.05 14.20 73.78 15.25Q73.50 16.30 73 17.20Q72.90 17.40 72.50 17.88Q72.10 18.35 72 18.25Q71.90 18.20 72.15 17.70Q72.40 17.20 72.50 16.95Q72.90 15.65 72.83 14.38Q72.75 13.10 72.33 12Q71.90 10.90 71.20 10.02Q70.50 9.15 69.70 8.60Q67.80 7.35 65.40 6.82Q63 6.30 60.52 6.42Q58.05 6.55 55.70 7.27Q53.35 8 51.65 9.20Q51.20 9.60 51.05 9.45Q50.95 9.40 51.07 9.22Q51.20 9.05 51.30 8.95M77.95 40.45Q78.25 40.40 78.25 40.50Q78.25 40.60 78 40.70Q76.20 41.35 74.50 41.40Q72.80 41.45 71.25 41.08Q69.70 40.70 68.35 40.02Q67 39.35 65.90 38.55Q64.60 37.60 63.42 36.42Q62.25 35.25 61.15 34.08Q60.05 32.90 58.95 31.80Q57.85 30.70 56.70 29.85Q55.85 32.65 55.15 34.80Q55.05 35.05 54.95 35.25Q54.85 35.45 54.75 35.40Q54.65 35.35 54.65 35.13Q54.65 34.90 54.65 34.65Q54.75 33.25 54.85 31.80Q54.95 30.35 55.30 28.90Q54.95 28.70 54.63 28.55Q54.30 28.40 53.90 28.20Q53.75 28.05 53.75 28Q53.75 27.95 53.88 27.95Q54 27.95 54.10 27.95Q56.10 28.10 57.75 29.17Q59.40 30.25 60.95 31.70Q62.50 33.15 64 34.77Q65.50 36.40 67.20 37.65Q68.15 38.35 69.38 38.92Q70.60 39.50 72 39.90Q73.40 40.30 74.92 40.48Q76.45 40.65 77.95 40.45M70.20 33.15Q71.60 34.40 72.88 35.95Q74.15 37.50 75.35 38.45Q75.70 38.80 75.65 38.95Q75.55 39.05 75.40 39Q75.25 38.95 75.05 38.90Q73.70 38.45 72.53 37.65Q71.35 36.85 70.25 35.85Q69.15 34.85 68.13 33.75Q67.10 32.65 66.05 31.60Q65.35 30.90 64.53 30.05Q63.70 29.20 62.80 28.48Q61.90 27.75 60.92 27.27Q59.95 26.80 58.90 26.80L60.85 25.95Q61.60 25.60 62.70 25.10Q63.80 24.60 64.80 24.15Q65.80 23.70 66.55 23.42Q67.30 23.15 67.35 23.20Q67.40 23.30 67.17 23.55Q66.95 23.80 66.58 24.10Q66.20 24.40 65.85 24.65Q65.50 24.90 65.35 24.95Q64.40 25.50 63.57 25.98Q62.75 26.45 61.90 26.85Q63.05 27.30 64.25 28.13Q65.45 28.95 66.55 29.90Q67.65 30.85 68.60 31.73Q69.55 32.60 70.20 33.15M54 36.25Q54.15 37.10 54.40 37.90Q54.65 38.70 55 39.25Q55.05 39.25 55.07 39.33Q55.10 39.40 55 39.40Q54.90 39.40 54.77 39.33Q54.65 39.25 54.55 39.25Q53.90 38.85 53.52 38.27Q53.15 37.70 52.90 36.25Q52.80 35.70 52.80 34.85Q52.80 34 52.85 33.23Q52.90 32.45 53 31.90Q53.10 31.35 53.30 31.35Q53.35 31.35 53.42 31.60Q53.50 31.85 53.55 32.17Q53.60 32.50 53.63 32.80Q53.65 33.10 53.65 33.20Q53.75 34.05 53.80 34.80Q53.85 35.55 54 36.25M75.90 39.40Q76.70 39.45 77.13 39.42Q77.55 39.40 78.25 39.30Q78.30 39.30 78.50 39.27Q78.70 39.25 78.75 39.30Q78.80 39.40 78.63 39.55Q78.45 39.70 78.35 39.75Q77.55 40 76.88 40.10Q76.20 40.20 74.90 40.05Q74.45 40 73.90 39.85Q73.35 39.70 72.90 39.52Q72.45 39.35 72.20 39.17Q71.95 39 72.10 38.90Q72.20 38.85 72.72 38.98Q73.25 39.10 73.45 39.15Q74.15 39.30 74.75 39.35Q75.35 39.40 75.90 39.40ZM94.40 25.40Q94.55 24.05 94.45 22.55Q94.35 21.05 93.82 19.77Q93.30 18.50 92.22 17.65Q91.15 16.80 89.40 16.80Q87.05 16.80 85.30 18.07Q83.55 19.35 82.30 21.22Q81.05 23.10 80.35 25.23Q79.65 27.35 79.45 29.10Q79.15 31.50 79.38 33.25Q79.60 35 80.20 36.13Q80.80 37.25 81.72 37.80Q82.65 38.35 83.75 38.35Q85.30 38.40 87.02 37.48Q88.75 36.55 90.25 34.88Q91.75 33.20 92.88 30.77Q94 28.35 94.40 25.40M78.30 28.85Q78.50 26.85 79.30 24.45Q80.10 22.05 81.52 20Q82.95 17.95 84.95 16.57Q86.95 15.20 89.60 15.20Q91.60 15.20 92.90 16.15Q94.20 17.10 94.90 18.57Q95.60 20.05 95.80 21.77Q96 23.50 95.80 25.05Q95.35 28.65 94.05 31.30Q92.75 33.95 91 35.73Q89.25 37.50 87.30 38.38Q85.35 39.25 83.55 39.25Q82.20 39.25 81.13 38.65Q80.05 38.05 79.32 36.77Q78.60 35.50 78.32 33.52Q78.05 31.55 78.30 28.85M83.90 35.90Q83.65 35.90 83.40 35.73Q83.15 35.55 83 35.30Q82.85 35.05 82.80 34.80Q82.75 34.55 83 34.45Q83.15 34.40 83.40 34.80Q83.65 35.20 83.95 35.20Q84.45 35.20 85.13 34.55Q85.80 33.90 86.42 33.02Q87.05 32.15 87.52 31.30Q88 30.45 88.20 30.05Q88.40 29.65 88.60 29.02Q88.80 28.40 88.97 27.75Q89.15 27.10 89.27 26.48Q89.40 25.85 89.45 25.40Q89.70 23.15 89.35 21.93Q89 20.70 88.20 20.70Q87.60 20.70 86.95 21.07Q86.30 21.45 85.72 22.05Q85.15 22.65 84.70 23.38Q84.25 24.10 84.05 24.85Q83.80 25.70 83.70 25.70Q83.55 25.70 83.55 24.85Q83.70 23.90 84.20 22.97Q84.70 22.05 85.45 21.32Q86.20 20.60 87.10 20.13Q88 19.65 88.95 19.65Q89.90 19.65 90.38 20.32Q90.85 21 91.05 21.97Q91.25 22.95 91.22 23.98Q91.20 25 91.10 25.60Q90.90 26.95 90.47 28.23Q90.05 29.50 89.45 30.80Q89.15 31.40 88.55 32.27Q87.95 33.15 87.17 33.95Q86.40 34.75 85.52 35.33Q84.65 35.90 83.90 35.90M85.50 36.85Q85.55 37.15 85.02 37.35Q84.50 37.55 83.95 37.55Q82.40 37.50 81.57 36.55Q80.75 35.60 80.42 34.30Q80.10 33 80.13 31.60Q80.15 30.20 80.25 29.25Q80.45 27.60 81.05 25.55Q81.65 23.50 82.75 21.70Q83.85 19.90 85.45 18.67Q87.05 17.45 89.25 17.45Q90.70 17.45 91.57 18.20Q92.45 18.95 92.88 20.05Q93.30 21.15 93.38 22.43Q93.45 23.70 93.30 24.75Q93.20 25.90 92.95 26.85Q92.70 27.80 92.25 28.95Q92.10 29.30 91.85 29.75Q91.60 30.20 91.30 30.15Q91.15 30.10 91.22 29.75Q91.30 29.40 91.42 28.88Q91.55 28.35 91.70 27.77Q91.85 27.20 91.90 26.70Q92 25.85 92.02 24.57Q92.05 23.30 91.82 22.10Q91.60 20.90 91 20.05Q90.40 19.20 89.20 19.20Q87.45 19.20 85.97 20.32Q84.50 21.45 83.40 23.07Q82.30 24.70 81.63 26.48Q80.95 28.25 80.80 29.60Q80.70 30.40 80.75 31.60Q80.80 32.80 81.13 33.98Q81.45 35.15 82.20 36Q82.95 36.85 84.25 36.90Q84.65 36.95 85.02 36.83Q85.40 36.70 85.50 36.85ZM112.75 25.40Q112.90 24.05 112.80 22.55Q112.70 21.05 112.17 19.77Q111.65 18.50 110.57 17.65Q109.50 16.80 107.75 16.80Q105.40 16.80 103.65 18.07Q101.90 19.35 100.65 21.22Q99.40 23.10 98.70 25.23Q98.00 27.35 97.80 29.10Q97.50 31.50 97.72 33.25Q97.95 35 98.55 36.13Q99.15 37.25 100.07 37.80Q101.00 38.35 102.10 38.35Q103.65 38.40 105.37 37.48Q107.10 36.55 108.60 34.88Q110.10 33.20 111.22 30.77Q112.35 28.35 112.75 25.40M96.65 28.85Q96.85 26.85 97.65 24.45Q98.45 22.05 99.87 20Q101.30 17.95 103.30 16.57Q105.30 15.20 107.95 15.20Q109.95 15.20 111.25 16.15Q112.55 17.10 113.25 18.57Q113.95 20.05 114.15 21.77Q114.35 23.50 114.15 25.05Q113.70 28.65 112.40 31.30Q111.10 33.95 109.35 35.73Q107.60 37.50 105.65 38.38Q103.70 39.25 101.90 39.25Q100.55 39.25 99.47 38.65Q98.40 38.05 97.67 36.77Q96.95 35.50 96.67 33.52Q96.40 31.55 96.65 28.85M102.25 35.90Q102.00 35.90 101.75 35.73Q101.50 35.55 101.35 35.30Q101.20 35.05 101.15 34.80Q101.10 34.55 101.35 34.45Q101.50 34.40 101.75 34.80Q102.00 35.20 102.30 35.20Q102.80 35.20 103.47 34.55Q104.15 33.90 104.77 33.02Q105.40 32.15 105.87 31.30Q106.35 30.45 106.55 30.05Q106.75 29.65 106.95 29.02Q107.15 28.40 107.32 27.75Q107.50 27.10 107.62 26.48Q107.75 25.85 107.80 25.40Q108.05 23.15 107.70 21.93Q107.35 20.70 106.55 20.70Q105.95 20.70 105.30 21.07Q104.65 21.45 104.07 22.05Q103.50 22.65 103.05 23.38Q102.60 24.10 102.40 24.85Q102.15 25.70 102.05 25.70Q101.90 25.70 101.90 24.85Q102.05 23.90 102.55 22.97Q103.05 22.05 103.80 21.32Q104.55 20.60 105.45 20.13Q106.35 19.65 107.30 19.65Q108.25 19.65 108.72 20.32Q109.20 21 109.40 21.97Q109.60 22.95 109.57 23.98Q109.55 25 109.45 25.60Q109.25 26.95 108.82 28.23Q108.40 29.50 107.80 30.80Q107.50 31.40 106.90 32.27Q106.30 33.15 105.52 33.95Q104.75 34.75 103.87 35.33Q103.00 35.90 102.25 35.90M103.85 36.85Q103.90 37.15 103.37 37.35Q102.85 37.55 102.30 37.55Q100.75 37.50 99.92 36.55Q99.10 35.60 98.77 34.30Q98.45 33 98.47 31.60Q98.50 30.20 98.60 29.25Q98.80 27.60 99.40 25.55Q100.00 23.50 101.10 21.70Q102.20 19.90 103.80 18.67Q105.40 17.45 107.60 17.45Q109.05 17.45 109.92 18.20Q110.80 18.95 111.22 20.05Q111.65 21.15 111.72 22.43Q111.80 23.70 111.65 24.75Q111.55 25.90 111.30 26.85Q111.05 27.80 110.60 28.95Q110.45 29.30 110.20 29.75Q109.95 30.20 109.65 30.15Q109.50 30.10 109.57 29.75Q109.65 29.40 109.77 28.88Q109.90 28.35 110.05 27.77Q110.20 27.20 110.25 26.70Q110.35 25.85 110.37 24.57Q110.40 23.30 110.17 22.10Q109.95 20.90 109.35 20.05Q108.75 19.20 107.55 19.20Q105.80 19.20 104.32 20.32Q102.85 21.45 101.75 23.07Q100.65 24.70 99.97 26.48Q99.30 28.25 99.15 29.60Q99.05 30.40 99.10 31.60Q99.15 32.80 99.47 33.98Q99.80 35.15 100.55 36Q101.30 36.85 102.60 36.90Q103.00 36.95 103.37 36.83Q103.75 36.70 103.85 36.85ZM133.85 15.90Q134.05 16.70 133.92 17.50Q133.80 18.30 133.52 19Q133.25 19.70 132.82 20.22Q132.40 20.75 132.00 21.05Q130.80 21.90 129.30 22.63Q127.80 23.35 126.35 23.90Q126.25 23.95 126.00 24.02Q125.75 24.10 125.65 23.95Q125.60 23.90 125.72 23.70Q125.85 23.50 125.90 23.45Q126.40 22.85 127.25 22.15Q128.10 21.45 128.75 21.05Q128.95 20.90 129.72 20.30Q130.50 19.70 131.32 18.88Q132.15 18.05 132.85 17.20Q133.55 16.35 133.60 15.75Q133.60 15.65 133.63 15.63Q133.65 15.60 133.65 15.55Q133.65 15.50 133.70 15.50Q133.80 15.55 133.82 15.67Q133.85 15.80 133.85 15.90M124.45 11.85Q123.75 14.90 122.60 18.02Q121.45 21.15 120.15 23.85Q120.05 24.10 119.87 24.52Q119.70 24.95 119.55 24.95Q119.45 24.85 119.47 24.42Q119.50 24 119.55 23.85Q119.70 23.10 119.95 21.95Q120.20 20.80 120.52 19.50Q120.85 18.20 121.17 16.95Q121.50 15.70 121.80 14.75Q122.80 11.40 123.10 8.13Q123.40 4.85 122.85 1.85Q122.80 1.65 122.82 1.55Q122.85 1.45 122.85 1.40Q123.10 1.30 123.30 1.70Q123.90 2.50 124.25 3.77Q124.60 5.05 124.72 6.48Q124.85 7.90 124.77 9.32Q124.70 10.75 124.45 11.85M121.55 0.60Q122.55 3.05 122.45 5.82Q122.35 8.60 121.65 11.55Q120.95 14.50 119.92 17.52Q118.90 20.55 118.05 23.50Q117.50 25.35 117.17 27.42Q116.85 29.50 116.85 31.57Q116.85 33.65 117.25 35.60Q117.65 37.55 118.60 39.20Q118.75 39.45 118.57 39.40Q118.40 39.35 118.30 39.25Q117.05 37.70 116.42 35.67Q115.80 33.65 115.67 31.40Q115.55 29.15 115.85 26.80Q116.15 24.45 116.75 22.35Q117.65 19.40 118.57 16.50Q119.50 13.60 120.20 10.85Q120.90 8.10 121.22 5.52Q121.55 2.95 121.20 0.60Q121.20 0.50 121.17 0.38Q121.15 0.25 121.25 0.25Q121.35 0.25 121.42 0.38Q121.50 0.50 121.55 0.60M134.80 38Q135.20 38.10 135.10 38.25Q135 38.40 134.85 38.45Q133.30 38.85 131.85 38.60Q130.40 38.35 129.45 37.65Q128.20 36.75 127.27 35.30Q126.35 33.85 125.50 32.55Q125.45 32.45 125.35 32.27Q125.25 32.10 125.30 32Q125.40 31.85 125.57 31.93Q125.75 32 125.80 32.05Q126.45 32.35 127.37 33Q128.30 33.65 128.75 34.20Q129.15 34.65 129.85 35.27Q130.55 35.90 131.37 36.45Q132.20 37 133.10 37.45Q134 37.90 134.80 38M136.40 36.90Q136.65 36.95 136.52 37.05Q136.40 37.15 136.20 37.15Q134.60 37.45 133.35 36.83Q132.10 36.20 131.02 35.17Q129.95 34.15 128.92 32.95Q127.90 31.75 126.75 30.80Q125.30 29.65 123.17 29.15Q121.05 28.65 118.60 29.60Q118.35 29.70 118.40 29.55Q118.45 29.40 118.55 29.30Q119.00 29 119.50 28.73Q120.00 28.45 120.45 28.30Q121.05 25.65 121.90 23.02Q122.75 20.40 123.60 17.65Q124.40 15.10 125.05 12.30Q125.70 9.50 125.60 6.35Q125.60 6.05 125.70 6.05Q125.80 6.05 125.82 6.20Q125.85 6.35 125.95 6.45Q126.45 7.50 126.45 9.25Q126.45 11 126.15 13.02Q125.85 15.05 125.35 17.15Q124.85 19.25 124.35 20.95Q125.35 19.90 126.57 19.17Q127.80 18.45 129.02 17.77Q130.25 17.10 131.30 16.25Q132.35 15.40 133.00 14.10Q133.00 14.05 133.02 14Q133.05 13.95 133.10 14.05Q133.10 14.10 133.12 14.20Q133.15 14.30 133.15 14.40Q133.05 16 132.20 17.07Q131.35 18.15 130.15 19Q128.95 19.85 127.55 20.60Q126.15 21.35 124.95 22.25Q123.50 23.35 123.00 24.90Q122.50 26.45 122.15 27.95Q122.40 27.60 122.67 27.17Q122.95 26.75 123.20 26.38Q123.45 26 123.65 25.80Q123.85 25.60 123.95 25.70Q124.00 25.75 123.92 26.02Q123.85 26.30 123.75 26.65Q123.65 27 123.55 27.35Q123.45 27.70 123.40 27.90Q123.65 27.95 123.82 27.95Q124.00 27.95 124.15 28Q125.30 26.35 126.85 25.23Q128.40 24.10 130.10 23.10Q131.25 22.40 132.32 21.60Q133.40 20.80 134.25 19.50Q134.30 19.35 134.40 19.45Q134.45 19.50 134.42 19.57Q134.40 19.65 134.45 19.80Q134.50 20.85 133.85 21.80Q133.20 22.75 132.25 23.55Q131.30 24.35 130.30 25Q129.30 25.65 128.75 26.10Q127.95 26.70 127.00 27.23Q126.05 27.75 125.20 28.20Q126.70 28.70 128.00 29.80Q129.15 30.70 130.15 31.82Q131.15 32.95 132.15 34Q133.15 35.05 134.17 35.85Q135.20 36.65 136.40 36.90M120.70 32.15Q120.60 32.45 120.42 33Q120.25 33.55 120.15 34.05Q120.05 34.30 120.02 34.55Q120.00 34.80 119.90 34.75Q119.75 34.70 119.67 34.35Q119.60 34 119.60 33.75Q119.60 33.40 119.60 32.95Q119.60 32.50 119.67 32.13Q119.75 31.75 119.97 31.50Q120.20 31.25 120.65 31.25Q121.30 31.30 122.07 31.73Q122.85 32.15 123.65 32.83Q124.45 33.50 125.25 34.33Q126.05 35.15 126.85 36Q127.70 36.95 128.72 37.92Q129.75 38.90 131.20 39.30Q131.40 39.40 131.40 39.48Q131.40 39.55 131.15 39.55Q130.15 39.55 129.12 39.13Q128.10 38.70 127.12 38.08Q126.15 37.45 125.32 36.75Q124.50 36.05 123.90 35.50Q123.05 34.70 122.22 33.80Q121.40 32.90 120.70 32.15M120.10 39.20Q120.20 39.35 120.07 39.40Q119.95 39.45 119.70 39.25Q119.10 38.70 118.60 37.92Q118.10 37.15 117.85 35.55Q117.65 34.60 117.57 33.52Q117.50 32.45 117.75 31.60Q118.00 30.75 118.70 30.17Q119.40 29.60 120.75 29.60Q121.10 29.60 121.55 29.70Q122.00 29.80 122.37 29.92Q122.75 30.05 122.97 30.23Q123.20 30.40 123.05 30.55Q123.00 30.70 122.52 30.65Q122.05 30.60 121.95 30.60Q121.35 30.50 120.77 30.48Q120.20 30.45 119.75 30.60Q119.30 30.75 119.02 31.17Q118.75 31.60 118.75 32.40Q118.75 34.10 119.05 35.60Q119.25 36.60 119.47 37.48Q119.70 38.35 120.10 39.20ZM143.30 22.75Q143.45 22.10 143.47 21.25Q143.50 20.40 143.35 19.50Q143.20 18.60 142.82 17.77Q142.45 16.95 141.85 16.35Q141.55 16.15 141.50 16.15Q141.30 16.15 141.50 16.45Q141.80 17.10 141.72 18.47Q141.65 19.85 141.40 21.32Q141.15 22.80 140.87 23.98Q140.60 25.15 140.55 25.40Q140.20 26.30 139.92 27.65Q139.65 29 139.65 29.85Q139.60 29.95 139.60 30.25Q139.60 30.55 139.75 30.60Q139.80 30.60 139.95 30.35Q140.10 30.10 140.20 30Q141.10 28.40 141.92 26.50Q142.75 24.60 143.30 22.75M143.50 30.30Q143.70 29.40 144.15 27.98Q144.60 26.55 144.90 25.02Q145.20 23.50 145.20 22.02Q145.20 20.55 144.60 19.60Q144.40 19.40 144.30 19.40Q144.20 19.40 144.25 19.60Q144.25 21.50 143.82 23.13Q143.40 24.75 142.90 26.30Q142.05 28.85 141.35 31.27Q140.65 33.70 140.75 36.25Q140.75 36.40 140.77 36.58Q140.80 36.75 140.95 36.75Q141.05 36.75 141.10 36.65Q141.15 36.55 141.25 36.35Q141.75 35.15 142.40 33.52Q143.05 31.90 143.50 30.30M139.95 39.25Q139.00 38.25 138.50 37.02Q138.00 35.80 137.80 34.52Q137.60 33.25 137.70 31.95Q137.80 30.65 138.10 29.50Q138.55 27.70 139.25 25.90Q139.95 24.10 140.45 22.32Q140.95 20.55 141.02 18.82Q141.10 17.10 140.30 15.45Q140.15 15.20 140.10 15.20Q140.05 15.20 140.05 15.27Q140.05 15.35 140.10 15.40Q140.25 16.90 139.90 18.50Q139.55 20.10 139.00 21.77Q138.45 23.45 137.77 25.23Q137.10 27 136.65 28.85Q136.30 30.20 136.17 31.60Q136.05 33 136.35 34.38Q136.65 35.75 137.45 37Q138.25 38.25 139.75 39.30Q139.85 39.40 140.00 39.42Q140.15 39.45 139.95 39.25M140.35 37.35Q140.20 36.95 140.02 36.35Q139.85 35.75 139.75 35.20Q139.65 35 139.50 34.45Q139.35 33.90 139.25 33.90Q139.05 33.90 138.97 34.25Q138.90 34.60 138.90 35.13Q138.90 35.65 138.97 36.23Q139.05 36.80 139.20 37.20Q139.50 38.20 139.92 38.60Q140.35 39 141.05 39.25Q141.35 39.40 141.50 39.40Q141.55 39.40 141.52 39.33Q141.50 39.25 141.45 39.25Q141.10 38.85 140.82 38.40Q140.55 37.95 140.35 37.35M144.25 11.50Q144.00 11.50 143.47 11.42Q142.95 11.35 142.95 10.95Q142.95 10.80 143.40 10.57Q143.85 10.35 144.40 9.92Q144.95 9.50 145.40 8.82Q145.85 8.15 145.85 7.10Q145.85 5.80 145.35 5.15Q145.25 5 145.10 4.82Q144.95 4.65 145.00 4.60Q145.10 4.60 145.22 4.67Q145.35 4.75 145.40 4.80Q146.40 5.35 146.92 6.23Q147.45 7.10 147.45 7.90Q147.45 9.50 146.70 10.50Q145.95 11.50 144.25 11.50M142.40 9.50Q141.80 9.75 141.80 9.20Q141.80 8.80 142.10 8.42Q142.40 8.05 142.67 7.60Q142.95 7.15 143.05 6.57Q143.15 6 142.75 5.15Q142.65 4.90 142.40 4.60Q142.15 4.30 142.25 4.25Q142.35 4.20 142.67 4.32Q143.00 4.45 143.10 4.50Q143.95 4.90 144.37 5.70Q144.80 6.50 144.80 7.10Q144.80 8.05 144.02 8.67Q143.25 9.30 142.40 9.50M140.95 6.80Q140.95 6.55 141.10 6.23Q141.25 5.90 141.60 5.90Q141.85 5.90 142.00 6.23Q142.15 6.55 142.15 6.80Q142.15 7 142.00 7.32Q141.85 7.65 141.60 7.65Q141.25 7.65 141.10 7.35Q140.95 7.05 140.95 6.80ZM160.70 18.85Q161.10 19.35 161.32 20.10Q161.55 20.85 161.50 21.72Q161.45 22.60 161.10 23.55Q160.75 24.50 160.00 25.40Q158.55 27.10 156.82 28.02Q155.10 28.95 153.70 28.95Q152.85 28.95 153.70 28.65Q154.15 28.50 154.77 28.17Q155.40 27.85 156.10 27.38Q156.80 26.90 157.52 26.25Q158.25 25.60 158.85 24.75Q159.85 23.35 160.02 22.02Q160.20 20.70 159.50 20Q158.90 19.40 158.10 19.32Q157.30 19.25 155.70 20.20Q154.25 21.05 153.10 22.30Q151.95 23.55 150.95 24.95Q150.40 25.65 150.22 25.65Q150.05 25.65 150.35 24.75Q150.95 23 152.02 21.50Q153.10 20 154.60 18.95Q155.70 18.20 156.62 17.90Q157.55 17.60 158.32 17.65Q159.10 17.70 159.70 18.02Q160.30 18.35 160.70 18.85M163.40 22.35Q163.20 23.55 162.77 24.38Q162.35 25.20 161.82 25.77Q161.30 26.35 160.77 26.70Q160.25 27.05 159.85 27.35Q159.65 27.50 159.55 27.40Q159.45 27.30 159.70 27.05Q160.60 26.30 161.52 25.02Q162.45 23.75 162.50 22.20Q162.50 19.55 161.20 18.15Q159.90 16.75 157.95 16.92Q156.00 17.10 153.90 18.45Q152.55 19.30 151.52 20.43Q150.50 21.55 149.75 22.82Q149.00 24.10 148.52 25.45Q148.05 26.80 147.85 28.15Q147.65 29.45 147.47 30.95Q147.30 32.45 147.47 33.90Q147.65 35.35 148.40 36.67Q149.15 38 150.75 38.95Q151.00 39.10 151.27 39.15Q151.55 39.20 151.55 39.25Q151.55 39.35 151.30 39.38Q151.05 39.40 150.75 39.30Q149.50 39.05 148.62 38.27Q147.75 37.50 147.20 36.50Q146.65 35.50 146.35 34.40Q146.05 33.30 146.00 32.40Q145.70 28.45 147.10 24.60Q147.40 23.80 147.87 22.80Q148.35 21.80 149.05 20.77Q149.75 19.75 150.70 18.77Q151.65 17.80 152.85 17.05Q154.00 16.35 155.25 16Q156.50 15.65 157.75 15.67Q159.00 15.70 160.10 16.13Q161.20 16.55 162.05 17.40Q162.80 18.20 163.22 19.45Q163.65 20.70 163.40 22.35M158.85 20.55Q159.45 21.25 159.00 22.72Q158.55 24.20 156.90 25.70Q156.00 26.55 155.15 27.07Q154.30 27.60 153.00 28Q152.45 29.90 152.30 31.75Q152.15 33.60 152.40 34.75Q152.45 35.20 152.72 35.63Q153.00 36.05 153.52 36.27Q154.05 36.50 154.90 36.45Q155.75 36.40 157.00 35.90Q157.35 35.75 157.42 35.83Q157.50 35.90 157.10 36.15Q156.20 36.85 155.20 37.13Q154.20 37.40 153.32 37.30Q152.45 37.20 151.82 36.70Q151.20 36.20 151.00 35.35Q150.60 33.60 150.65 31.70Q150.70 29.80 151.22 27.95Q151.75 26.10 152.72 24.48Q153.70 22.85 155.15 21.70Q157.85 19.55 158.85 20.55M158.35 36.50Q158.00 37 157.47 37.48Q156.95 37.95 156.27 38.33Q155.60 38.70 154.87 38.95Q154.15 39.20 153.40 39.20Q152.10 39.20 150.97 38.63Q149.85 38.05 149.25 36.30Q149.15 36.10 149.15 35.92Q149.15 35.75 149.25 35.75Q149.45 35.65 149.65 35.88Q149.85 36.10 150.05 36.35Q150.60 37 151.47 37.50Q152.35 38 153.15 38Q154.65 38 155.75 37.55Q156.85 37.10 157.85 36.35Q158.10 36.20 158.42 36.05Q158.75 35.90 158.35 36.50M157.65 21.90Q157.45 21.50 156.20 22.55Q155.05 23.45 154.37 24.63Q153.70 25.80 153.20 27.20Q154.15 26.75 154.95 26.17Q155.75 25.60 156.45 25.05Q157.20 24.40 157.55 23.35Q157.90 22.30 157.65 21.90Z"/></g></g></svg>