<svg xmlns="http://www.w3.org/2000/svg" viewBox="0 1 114.51470947265625 86.39595031738281" data-asc="0.785" width="114.51470947265625" height="86.39595031738281"><defs/><g fill="#250330"><g transform="translate(0, 0)"><path d="M22.40 45.35Q20.00 45.20 17.38 44.80Q14.75 44.40 12.35 43.85Q12.25 43.80 11.93 43.73Q11.60 43.65 11.60 43.50Q11.60 43.35 11.95 43.30Q12.30 43.25 12.50 43.25Q13 43.20 13.75 43.15Q14.50 43.10 15.33 43.10Q16.15 43.10 16.95 43.13Q17.75 43.15 18.30 43.25Q18.55 43.30 19.40 43.33Q20.25 43.35 21.40 43.35Q22.55 43.35 23.85 43.30Q25.15 43.25 26.35 43.13Q27.55 43 28.53 42.83Q29.50 42.65 30.00 42.35Q30.10 42.35 30.15 42.33Q30.20 42.30 30.25 42.30L30.35 42.30Q30.35 42.45 30.28 42.58Q30.20 42.70 30.20 42.75Q29.60 43.45 28.63 43.95Q27.65 44.45 26.55 44.80Q25.45 45.15 24.35 45.27Q23.25 45.40 22.40 45.35M12.95 47.10Q10.85 47.05 8.63 46.75Q6.40 46.45 4.65 46.10Q4.40 46.05 4.20 45.98Q4 45.90 4 45.85Q4 45.80 4.22 45.73Q4.45 45.65 4.65 45.65Q7.85 45 11.15 45.20Q14.45 45.40 17.80 45.65Q19.95 45.85 22.13 46Q24.30 46.15 26.75 45.65Q27.00 45.65 27.00 45.80Q27.00 45.85 26.90 45.88Q26.80 45.90 26.75 46.05Q25.70 46.85 23.85 47.13Q22.00 47.40 19.98 47.40Q17.95 47.40 16.03 47.27Q14.10 47.15 12.95 47.10M0.35 45.50Q0 45.75 0 45.65Q0 45.55 0.05 45.45Q0.10 45.35 0.15 45.35Q1.25 43.70 2.75 42.67Q4.25 41.65 5.95 41.08Q7.65 40.50 9.45 40.35Q11.25 40.20 13.05 40.25Q15.50 40.35 17.90 40.63Q20.30 40.90 22.58 41.10Q24.85 41.30 26.95 41.30Q29.05 41.30 30.95 40.80Q31.05 40.80 31.15 40.75Q31.25 40.70 31.25 40.80Q31.30 40.90 31.18 40.95Q31.05 41 30.95 41.05Q29.05 42.20 26.85 42.48Q24.65 42.75 22.25 42.60Q19.85 42.45 17.38 42.13Q14.90 41.80 12.50 41.75Q10.90 41.70 9.25 41.88Q7.60 42.05 6 42.48Q4.40 42.90 2.95 43.65Q1.50 44.40 0.35 45.50M3.30 45.35Q2.60 45.70 1.90 46.08Q1.20 46.45 0.55 47Q0.55 47.10 0.43 47.13Q0.30 47.15 0.30 47.10Q0.30 46.80 0.35 46.70Q0.35 46.60 0.40 46.55Q0.90 45.80 1.35 45.30Q1.80 44.80 2.95 44.25Q3.45 44.05 4.20 43.85Q4.95 43.65 5.60 43.52Q6.25 43.40 6.72 43.45Q7.20 43.50 7.20 43.70Q7.20 43.75 7 43.85Q6.80 43.95 6.55 44.05Q6.30 44.15 6.05 44.27Q5.80 44.40 5.70 44.45Q5.05 44.70 4.45 44.90Q3.85 45.10 3.30 45.35ZM46.35 17.05Q46.40 17.10 46.40 17.27Q46.40 17.45 46.35 17.55Q45.90 19 44.80 19.60Q43.70 20.20 42.85 20.20Q41.80 20.20 40.70 20.02Q39.60 19.85 38.60 19.10Q38.50 19 38.35 18.90Q38.20 18.80 38.20 18.70Q38.20 18.55 38.35 18.47Q38.50 18.40 38.60 18.35Q39.05 18.25 39.78 18.17Q40.50 18.10 41.20 18.20Q41.70 18.30 42.40 18.30Q43.10 18.30 43.83 18.20Q44.55 18.10 45.15 17.88Q45.75 17.65 46.05 17.20Q46.20 17 46.35 17.05M46.70 15.50L46.55 15.75Q45.70 16.85 44.75 17.17Q43.80 17.50 42.75 17.45Q41.70 17.40 40.63 17.17Q39.55 16.95 38.50 16.90Q37.10 16.85 35.70 17.75Q34.30 18.65 33.30 20.90Q33.15 21.20 33.10 21.02Q33.05 20.85 33.10 20.70Q33.50 19.20 34.05 18.20Q34.60 17.20 35.23 16.57Q35.85 15.95 36.55 15.65Q37.25 15.35 38 15.25Q38.85 12.40 39.33 9.67Q39.80 6.95 39.40 4.50Q39.40 4.30 39.40 4.30Q39.50 4.25 39.60 4.35Q39.70 4.45 39.70 4.50Q40.80 6.90 40.60 9.63Q40.40 12.35 39.60 15.35Q39.85 15.40 40 15.40Q40.15 15.40 40.35 15.40Q40.60 14.10 40.83 12.63Q41.05 11.15 41.18 9.80Q41.30 8.45 41.25 7.35Q41.20 6.25 40.90 5.70Q40.75 5.25 40.90 5.25Q41 5.25 41.05 5.35Q41.10 5.45 41.20 5.55Q41.90 6.25 42.30 7.45Q42.70 8.65 42.85 10Q43 11.35 42.95 12.67Q42.90 14 42.65 15L42.45 15.80Q42.60 15.90 42.75 15.90Q42.90 15.90 43.05 15.95Q43.35 14.45 43.58 12.95Q43.80 11.45 43.75 9.80Q43.75 9.45 43.80 9.45Q43.90 9.45 43.95 9.60Q44 9.75 44.05 9.85Q44.65 10.95 44.63 12.60Q44.60 14.25 44.35 16.10Q45.45 16.10 46.45 15.50Q46.70 15.35 46.70 15.50M36.35 18.90Q36.35 19.15 36.08 19.40Q35.80 19.65 35.65 19.75Q35.40 19.95 35.08 20.22Q34.75 20.50 34.50 20.80Q34.25 21.20 34.03 21.50Q33.80 21.80 33.65 22.35Q33.60 22.45 33.53 22.52Q33.45 22.60 33.40 22.55Q33.25 22.40 33.40 21.90Q33.60 21.15 33.80 20.68Q34 20.20 34.55 19.65Q34.75 19.45 35.05 19.25Q35.35 19.05 35.65 18.90Q35.95 18.75 36.15 18.75Q36.35 18.75 36.35 18.90M40.25 39Q40.50 38.90 40.45 39.05Q40.40 39.20 40.30 39.25Q39.40 39.55 38.40 39.15Q37.40 38.75 36.55 37.90Q35.70 37.05 35.10 35.92Q34.50 34.80 34.35 33.70Q34.10 31.35 34.30 29.15Q34.50 26.95 35.05 24.80L35.90 21.65Q35.60 21.65 35.30 21.50Q34.95 21.40 34.95 21.25Q34.95 21.15 35.30 20.95Q36.70 20.25 38.13 20.35Q39.55 20.45 41 20.70Q41.90 20.85 42.83 20.93Q43.75 21 44.85 20.55Q44.95 20.45 45.05 20.50Q45.15 20.60 45 20.85Q44.70 21.50 44.15 21.80Q43.60 22.10 43 22.25Q42.60 23.55 42.30 24.57Q42 25.60 41.80 26.30Q41.25 28.70 40.53 31.17Q39.80 33.65 39.55 35.35Q39.45 35.90 39.35 35.95Q39.25 36 39.15 35.75Q39.05 35.50 39 35.35Q38.80 33.90 38.93 32.33Q39.05 30.75 39.40 29.10Q39.75 27.45 40.20 25.77Q40.65 24.10 41.15 22.40Q40.90 22.40 40.65 22.40Q40.40 22.40 40.15 22.35Q39.75 23.40 39.33 24.42Q38.90 25.45 38.50 26.35Q38.45 26.45 38.28 26.82Q38.10 27.20 38 27.20Q37.80 27.15 37.85 26.73Q37.90 26.30 37.90 26.15Q38 25.40 38.23 24.40Q38.45 23.40 38.65 22.25Q38.40 22.20 38.10 22.18Q37.80 22.15 37.50 22.05Q37.20 23.05 36.93 24Q36.65 24.95 36.40 25.90Q36 27.65 35.80 29.63Q35.60 31.60 35.80 33.70Q35.90 34.65 36.33 35.65Q36.75 36.65 37.35 37.45Q37.95 38.25 38.73 38.70Q39.50 39.15 40.25 39M40.70 37.90Q40.95 37.70 41 37.88Q41.05 38.05 40.80 38.20Q40.60 38.35 40.28 38.42Q39.95 38.50 39.55 38.45Q39.15 38.40 38.70 38.15Q38.25 37.90 37.85 37.35Q37.50 36.90 37.28 36.05Q37.05 35.20 36.95 34.38Q36.85 33.55 36.90 32.95Q36.95 32.35 37.15 32.35Q37.40 32.35 37.53 33.05Q37.65 33.75 37.75 34.20Q37.95 35 38.30 35.85Q38.65 36.70 39.05 37.20Q39.55 37.85 39.95 37.98Q40.35 38.10 40.70 37.90ZM54.45 12.90Q53.60 15.85 52.53 18.95Q51.45 22.05 50.30 24.80Q50.25 24.95 50.03 25.35Q49.80 25.75 49.65 25.70Q49.55 25.70 49.53 25.23Q49.50 24.75 49.55 24.50Q49.65 23.85 49.85 22.90Q50.05 21.95 50.28 20.95Q50.50 19.95 50.73 19Q50.95 18.05 51.20 17.35Q51.30 17.05 51.55 16.05Q51.80 15.05 52.10 13.65Q52.40 12.25 52.73 10.65Q53.05 9.05 53.28 7.55Q53.50 6.05 53.60 4.80Q53.70 3.55 53.55 2.90Q53.40 2.40 53.55 2.40Q53.65 2.40 53.73 2.52Q53.80 2.65 53.90 2.75Q54.40 3.65 54.68 4.95Q54.95 6.25 55 7.65Q55.05 9.05 54.90 10.45Q54.75 11.85 54.45 12.90M52.45 1.35Q53.10 3.90 52.78 6.70Q52.45 9.50 51.65 12.40Q50.85 15.30 49.85 18.27Q48.85 21.25 48.15 24.25Q47.70 26.15 47.43 28.17Q47.15 30.20 47.15 32.17Q47.15 34.15 47.48 35.98Q47.80 37.80 48.60 39.25Q48.70 39.45 48.68 39.55Q48.65 39.65 48.35 39.25Q47.05 37.75 46.43 35.85Q45.80 33.95 45.70 31.85Q45.60 29.75 45.90 27.50Q46.20 25.25 46.75 23.10Q47.50 20.10 48.43 17.20Q49.35 14.30 50.18 11.55Q51 8.80 51.55 6.23Q52.10 3.65 52.10 1.25Q52.10 1 52.15 1Q52.35 1 52.45 1.35M61.55 39.25Q59.70 38.40 58.60 36.60Q57.50 34.80 57.25 32.45Q57 30.15 57.25 28.63Q57.50 27.10 57.85 25.60Q57.90 25.40 58.05 24.92Q58.20 24.45 58.28 23.95Q58.35 23.45 58.28 23.07Q58.20 22.70 57.85 22.60Q57.15 22.45 56.25 23.22Q55.35 24 54.53 25.15Q53.70 26.30 53.03 27.52Q52.35 28.75 52.15 29.45Q51.70 30.90 51.20 32.20Q50.70 33.50 50.30 34.80Q50.15 35.35 50.05 35.30Q49.95 35.30 49.93 35.10Q49.90 34.90 49.90 34.65Q49.90 32.65 50.20 30.63Q50.50 28.60 51.03 26.60Q51.55 24.60 52.20 22.60Q52.85 20.60 53.45 18.55Q54.25 16 54.98 13.35Q55.70 10.70 55.95 7.65Q55.95 7.40 55.95 7.38Q55.95 7.35 56 7.35Q56.15 7.35 56.25 7.75Q56.50 8.40 56.48 9.57Q56.45 10.75 56.28 12.15Q56.10 13.55 55.78 15Q55.45 16.45 55.10 17.60Q56.05 16.60 57.35 16.05Q58.65 15.50 60.45 15.75Q62.50 16.05 63.60 17.22Q64.70 18.40 65.10 20.05Q65.50 21.70 65.33 23.57Q65.15 25.45 64.70 27.20Q64.30 28.55 63.95 29.57Q63.60 30.60 63.25 31.45Q62.90 32.30 62.65 33.05Q62.40 33.80 62.25 34.65Q62.15 35.20 62.05 35.20Q61.95 35.20 61.88 35Q61.80 34.80 61.75 34.60Q61.45 33.50 61.73 31.90Q62 30.30 62.45 28.52Q62.90 26.75 63.28 24.92Q63.65 23.10 63.58 21.55Q63.50 20 62.75 18.82Q62 17.65 60.20 17.20Q59.45 17 58.58 17.07Q57.70 17.15 56.93 17.47Q56.15 17.80 55.55 18.40Q54.95 19 54.75 19.80Q55.70 18.80 57.20 18.15Q58.70 17.50 60.10 17.95Q61.40 18.35 61.95 19.40Q62.50 20.45 62.60 21.25Q62.80 23 62.38 24.42Q61.95 25.85 61.40 27.15Q61.30 27.30 61.10 27.63Q60.90 27.95 60.80 27.90Q60.70 27.90 60.70 27.50Q60.70 27.10 60.75 26.90Q60.90 26.40 61 25.32Q61.10 24.25 61.08 23.10Q61.05 21.95 60.78 20.95Q60.50 19.95 59.90 19.60Q59.20 19.20 58.20 19.38Q57.20 19.55 56.05 20.60Q55.05 21.50 54.35 22.68Q53.65 23.85 53.15 25.75Q53.45 25.20 54.10 24.20Q54.75 23.20 55.58 22.30Q56.40 21.40 57.33 20.88Q58.25 20.35 59.10 20.75Q59.65 21.05 59.83 21.77Q60 22.50 59.93 23.40Q59.85 24.30 59.65 25.15Q59.45 26 59.30 26.50Q58.75 28 58.55 29.77Q58.35 31.55 58.58 33.25Q58.80 34.95 59.55 36.45Q60.30 37.95 61.75 39Q62.20 39.25 61.93 39.25Q61.65 39.25 61.55 39.25M62.85 38.85Q62.15 38.45 61.53 38Q60.90 37.55 60.30 36.25Q60.05 35.75 59.93 34.90Q59.80 34.05 59.78 33.27Q59.75 32.50 59.85 31.98Q59.95 31.45 60.10 31.50Q60.20 31.50 60.30 31.73Q60.40 31.95 60.45 32.25Q60.50 32.55 60.55 32.83Q60.60 33.10 60.60 33.20Q60.80 34.30 60.95 34.83Q61.10 35.35 61.35 35.95Q61.75 36.75 62.15 37.40Q62.55 38.05 63.15 38.60Q63.40 38.80 63.28 38.90Q63.15 39 62.85 38.85M50.20 39.25Q50.25 39.25 50.13 39.30Q50 39.35 49.65 39.25Q49.25 39.05 48.83 38.50Q48.40 37.95 48.15 36.35Q48.05 35.70 48.05 34.77Q48.05 33.85 48.13 33.02Q48.20 32.20 48.35 31.60Q48.50 31 48.70 31.05Q48.75 31.05 48.80 31.35Q48.85 31.65 48.90 32.02Q48.95 32.40 48.95 32.77Q48.95 33.15 48.95 33.30Q49 34.40 49.08 34.92Q49.15 35.45 49.30 36.35Q49.45 37.30 49.65 38.08Q49.85 38.85 50.20 39.25ZM80.95 18.85Q81.35 19.35 81.58 20.10Q81.80 20.85 81.75 21.72Q81.70 22.60 81.35 23.55Q81 24.50 80.25 25.40Q78.80 27.10 77.08 28.02Q75.35 28.95 73.95 28.95Q73.10 28.95 73.95 28.65Q74.40 28.50 75.03 28.17Q75.65 27.85 76.35 27.38Q77.05 26.90 77.78 26.25Q78.50 25.60 79.10 24.75Q80.10 23.35 80.28 22.02Q80.45 20.70 79.75 20Q79.15 19.40 78.35 19.32Q77.55 19.25 75.95 20.20Q74.50 21.05 73.35 22.30Q72.20 23.55 71.20 24.95Q70.65 25.65 70.48 25.65Q70.30 25.65 70.60 24.75Q71.20 23 72.28 21.50Q73.35 20 74.85 18.95Q75.95 18.20 76.88 17.90Q77.80 17.60 78.58 17.65Q79.35 17.70 79.95 18.02Q80.55 18.35 80.95 18.85M83.65 22.35Q83.45 23.55 83.03 24.38Q82.60 25.20 82.08 25.77Q81.55 26.35 81.03 26.70Q80.50 27.05 80.10 27.35Q79.90 27.50 79.80 27.40Q79.70 27.30 79.95 27.05Q80.85 26.30 81.78 25.02Q82.70 23.75 82.75 22.20Q82.75 19.55 81.45 18.15Q80.15 16.75 78.20 16.92Q76.25 17.10 74.15 18.45Q72.80 19.30 71.78 20.43Q70.75 21.55 70 22.82Q69.25 24.10 68.78 25.45Q68.30 26.80 68.10 28.15Q67.90 29.45 67.73 30.95Q67.55 32.45 67.73 33.90Q67.90 35.35 68.65 36.67Q69.40 38 71 38.95Q71.25 39.10 71.53 39.15Q71.80 39.20 71.80 39.25Q71.80 39.35 71.55 39.38Q71.30 39.40 71 39.30Q69.75 39.05 68.88 38.27Q68 37.50 67.45 36.50Q66.90 35.50 66.60 34.40Q66.30 33.30 66.25 32.40Q65.95 28.45 67.35 24.60Q67.65 23.80 68.13 22.80Q68.60 21.80 69.30 20.77Q70 19.75 70.95 18.77Q71.90 17.80 73.10 17.05Q74.25 16.35 75.50 16Q76.75 15.65 78 15.67Q79.25 15.70 80.35 16.13Q81.45 16.55 82.30 17.40Q83.05 18.20 83.48 19.45Q83.90 20.70 83.65 22.35M79.10 20.55Q79.70 21.25 79.25 22.72Q78.80 24.20 77.15 25.70Q76.25 26.55 75.40 27.07Q74.55 27.60 73.25 28Q72.70 29.90 72.55 31.75Q72.40 33.60 72.65 34.75Q72.70 35.20 72.98 35.63Q73.25 36.05 73.78 36.27Q74.30 36.50 75.15 36.45Q76 36.40 77.25 35.90Q77.60 35.75 77.68 35.83Q77.75 35.90 77.35 36.15Q76.45 36.85 75.45 37.13Q74.45 37.40 73.58 37.30Q72.70 37.20 72.08 36.70Q71.45 36.20 71.25 35.35Q70.85 33.60 70.90 31.70Q70.95 29.80 71.48 27.95Q72 26.10 72.98 24.48Q73.95 22.85 75.40 21.70Q78.10 19.55 79.10 20.55M78.60 36.50Q78.25 37 77.73 37.48Q77.20 37.95 76.53 38.33Q75.85 38.70 75.13 38.95Q74.40 39.20 73.65 39.20Q72.35 39.20 71.23 38.63Q70.10 38.05 69.50 36.30Q69.40 36.10 69.40 35.92Q69.40 35.75 69.50 35.75Q69.70 35.65 69.90 35.88Q70.10 36.10 70.30 36.35Q70.85 37 71.73 37.50Q72.60 38 73.40 38Q74.90 38 76 37.55Q77.10 37.10 78.10 36.35Q78.35 36.20 78.68 36.05Q79 35.90 78.60 36.50M77.90 21.90Q77.70 21.50 76.45 22.55Q75.30 23.45 74.63 24.63Q73.95 25.80 73.45 27.20Q74.40 26.75 75.20 26.17Q76 25.60 76.70 25.05Q77.45 24.40 77.80 23.35Q78.15 22.30 77.90 21.90ZM105.65 45.35Q103.25 45.20 100.63 44.80Q98.00 44.40 95.60 43.85Q95.50 43.80 95.18 43.73Q94.85 43.65 94.85 43.50Q94.85 43.35 95.20 43.30Q95.55 43.25 95.75 43.25Q96.25 43.20 97.00 43.15Q97.75 43.10 98.58 43.10Q99.40 43.10 100.20 43.13Q101.00 43.15 101.55 43.25Q101.80 43.30 102.65 43.33Q103.50 43.35 104.65 43.35Q105.80 43.35 107.10 43.30Q108.40 43.25 109.60 43.13Q110.80 43 111.78 42.83Q112.75 42.65 113.25 42.35Q113.35 42.35 113.40 42.33Q113.45 42.30 113.50 42.30L113.60 42.30Q113.60 42.45 113.53 42.58Q113.45 42.70 113.45 42.75Q112.85 43.45 111.88 43.95Q110.90 44.45 109.80 44.80Q108.70 45.15 107.60 45.27Q106.50 45.40 105.65 45.35M96.20 47.10Q94.10 47.05 91.88 46.75Q89.65 46.45 87.90 46.10Q87.65 46.05 87.45 45.98Q87.25 45.90 87.25 45.85Q87.25 45.80 87.48 45.73Q87.70 45.65 87.90 45.65Q91.10 45 94.40 45.20Q97.70 45.40 101.05 45.65Q103.20 45.85 105.38 46Q107.55 46.15 110.00 45.65Q110.25 45.65 110.25 45.80Q110.25 45.85 110.15 45.88Q110.05 45.90 110.00 46.05Q108.95 46.85 107.10 47.13Q105.25 47.40 103.23 47.40Q101.20 47.40 99.28 47.27Q97.35 47.15 96.20 47.10M83.60 45.50Q83.25 45.75 83.25 45.65Q83.25 45.55 83.30 45.45Q83.35 45.35 83.40 45.35Q84.50 43.70 86.00 42.67Q87.50 41.65 89.20 41.08Q90.90 40.50 92.70 40.35Q94.50 40.20 96.30 40.25Q98.75 40.35 101.15 40.63Q103.55 40.90 105.83 41.10Q108.10 41.30 110.20 41.30Q112.30 41.30 114.20 40.80Q114.30 40.80 114.40 40.75Q114.50 40.70 114.50 40.80Q114.55 40.90 114.43 40.95Q114.30 41 114.20 41.05Q112.30 42.20 110.10 42.48Q107.90 42.75 105.50 42.60Q103.10 42.45 100.63 42.13Q98.15 41.80 95.75 41.75Q94.15 41.70 92.50 41.88Q90.85 42.05 89.25 42.48Q87.65 42.90 86.20 43.65Q84.75 44.40 83.60 45.50M86.55 45.35Q85.85 45.70 85.15 46.08Q84.45 46.45 83.80 47Q83.80 47.10 83.68 47.13Q83.55 47.15 83.55 47.10Q83.55 46.80 83.60 46.70Q83.60 46.60 83.65 46.55Q84.15 45.80 84.60 45.30Q85.05 44.80 86.20 44.25Q86.70 44.05 87.45 43.85Q88.20 43.65 88.85 43.52Q89.50 43.40 89.98 43.45Q90.45 43.50 90.45 43.70Q90.45 43.75 90.25 43.85Q90.05 43.95 89.80 44.05Q89.55 44.15 89.30 44.27Q89.05 44.40 88.95 44.45Q88.30 44.70 87.70 44.90Q87.10 45.10 86.55 45.35Z"/></g><g transform="translate(0, 45.99)"><path d="M12.60 29.60Q14.20 31.05 15.60 32.67Q17 34.30 18.30 36.05Q18.35 36.15 18.58 36.42Q18.80 36.70 18.70 36.80Q18.65 36.85 18.33 36.73Q18 36.60 17.90 36.50Q17.50 36.25 16.98 35.85Q16.45 35.45 15.88 35Q15.30 34.55 14.75 34.08Q14.20 33.60 13.85 33.20Q13.60 33 12.65 32.17Q11.70 31.35 10.50 30.40Q9.30 29.45 8.05 28.65Q6.80 27.85 6 27.65Q5.85 27.60 5.58 27.50Q5.30 27.40 5.35 27.15Q5.75 25.25 6.35 23.45Q6.95 21.65 7.50 19.75Q8.20 17.40 8.83 14.95Q9.45 12.50 9.55 9.65Q9.55 9.40 9.60 9.40Q9.75 9.40 9.85 9.75Q10.45 11.10 10.35 13.25Q10.25 15.40 9.83 17.72Q9.40 20.05 8.78 22.18Q8.15 24.30 7.70 25.55L7.55 25.95Q9.40 24.70 11.40 23.45Q13.40 22.20 15.13 20.93Q16.85 19.65 18.13 18.27Q19.40 16.90 19.85 15.40Q20.15 14.40 19.78 13.40Q19.40 12.40 18.48 11.52Q17.55 10.65 16.15 10Q14.75 9.35 13.05 9.10Q10.80 8.80 8.50 8.95Q8.70 10.45 8.58 11.97Q8.45 13.50 8.20 14.60Q7.55 17.30 6.55 20.18Q5.55 23.05 4.50 25.55Q4.40 25.70 4.20 26.05Q4 26.40 3.85 26.35Q3.75 26.30 3.80 25.90Q3.85 25.50 3.85 25.35Q3.90 24.75 4.08 23.88Q4.25 23 4.42 22.05Q4.60 21.10 4.83 20.22Q5.05 19.35 5.25 18.70Q5.35 18.40 5.58 17.42Q5.80 16.45 6.05 15.10Q6.30 13.75 6.55 12.20Q6.80 10.65 6.95 9.20L6.25 9.30Q6.10 11.20 5.65 13.15Q5.20 15.10 4.63 17.07Q4.05 19.05 3.42 21.07Q2.80 23.10 2.35 25.05Q1.95 26.80 1.73 28.70Q1.50 30.60 1.57 32.45Q1.65 34.30 2.02 36.02Q2.40 37.75 3.25 39.15Q3.35 39.40 3.25 39.40Q3.15 39.40 3 39.25Q1.75 37.80 1.10 36Q0.45 34.20 0.28 32.23Q0.10 30.25 0.33 28.15Q0.55 26.05 1.00 24.05Q1.85 20.30 3.05 16.65Q4.25 13 5.05 9.60Q3.80 9.90 2.60 10.32Q1.40 10.75 0.35 11.25Q0.10 11.35 0.05 11.30Q0 11.25 0.10 11.13Q0.20 11 0.30 10.95Q2.80 8.90 6.40 8.05Q10.00 7.20 13.75 7.60Q15.70 7.85 17.33 8.70Q18.95 9.55 20.00 10.77Q21.05 12 21.38 13.50Q21.70 15 21.05 16.50Q20.30 18.25 18.68 19.75Q17.05 21.25 15.03 22.55Q13.00 23.85 10.75 24.95Q8.50 26.05 6.55 27Q7.35 27 8.20 27.25Q9.05 27.50 9.88 27.88Q10.70 28.25 11.43 28.70Q12.15 29.15 12.60 29.60M26.45 17.10Q25.70 19.70 24.18 21.52Q22.65 23.35 20.80 24.55Q18.95 25.75 17.05 26.38Q15.15 27 13.75 27.20Q13.35 27.30 13.03 27.27Q12.70 27.25 12.75 27.15Q12.65 27.05 12.98 26.95Q13.30 26.85 13.65 26.70Q16.35 25.70 18.85 24.10Q21.35 22.50 23.25 19.85Q24.15 18.60 24.60 16.95Q25.05 15.30 24.93 13.60Q24.80 11.90 24.08 10.30Q23.35 8.70 21.95 7.55Q20.30 6.15 18.35 5.35Q16.40 4.55 14.35 4.25Q12.30 3.95 10.20 4.13Q8.10 4.30 6.15 4.80Q5.80 4.90 5.75 4.92Q5.70 4.95 5.65 4.85Q5.65 4.80 6.05 4.50Q6.85 4 8.18 3.57Q9.50 3.15 11.18 3Q12.85 2.85 14.80 3.02Q16.75 3.20 18.80 3.95Q20.90 4.65 22.75 6.13Q24.60 7.60 25.70 9.75Q26.75 11.85 26.78 13.82Q26.80 15.80 26.45 17.10M1.05 8.95Q2.05 7.50 3.70 6.57Q5.35 5.65 7.30 5.20Q9.25 4.75 11.38 4.80Q13.50 4.85 15.50 5.30Q17.50 5.75 19.23 6.65Q20.95 7.55 22.10 8.85Q22.90 9.80 23.33 10.88Q23.75 11.95 23.78 13.07Q23.80 14.20 23.53 15.25Q23.25 16.30 22.75 17.20Q22.65 17.40 22.25 17.88Q21.85 18.35 21.75 18.25Q21.65 18.20 21.90 17.70Q22.15 17.20 22.25 16.95Q22.65 15.65 22.58 14.38Q22.50 13.10 22.08 12Q21.65 10.90 20.95 10.02Q20.25 9.15 19.45 8.60Q17.55 7.35 15.15 6.82Q12.75 6.30 10.28 6.42Q7.80 6.55 5.45 7.27Q3.10 8 1.40 9.20Q0.95 9.60 0.80 9.45Q0.70 9.40 0.83 9.22Q0.95 9.05 1.05 8.95M27.70 40.45Q28.00 40.40 28.00 40.50Q28.00 40.60 27.75 40.70Q25.95 41.35 24.25 41.40Q22.55 41.45 21.00 41.08Q19.45 40.70 18.10 40.02Q16.75 39.35 15.65 38.55Q14.35 37.60 13.18 36.42Q12.00 35.25 10.90 34.08Q9.80 32.90 8.70 31.80Q7.60 30.70 6.45 29.85Q5.60 32.65 4.90 34.80Q4.80 35.05 4.70 35.25Q4.60 35.45 4.50 35.40Q4.40 35.35 4.40 35.13Q4.40 34.90 4.40 34.65Q4.50 33.25 4.60 31.80Q4.70 30.35 5.05 28.90Q4.70 28.70 4.38 28.55Q4.05 28.40 3.65 28.20Q3.50 28.05 3.50 28Q3.50 27.95 3.63 27.95Q3.75 27.95 3.85 27.95Q5.85 28.10 7.50 29.17Q9.15 30.25 10.70 31.70Q12.25 33.15 13.75 34.77Q15.25 36.40 16.95 37.65Q17.90 38.35 19.13 38.92Q20.35 39.50 21.75 39.90Q23.15 40.30 24.68 40.48Q26.20 40.65 27.70 40.45M19.95 33.15Q21.35 34.40 22.63 35.95Q23.90 37.50 25.10 38.45Q25.45 38.80 25.40 38.95Q25.30 39.05 25.15 39Q25.00 38.95 24.80 38.90Q23.45 38.45 22.28 37.65Q21.10 36.85 20.00 35.85Q18.90 34.85 17.88 33.75Q16.85 32.65 15.80 31.60Q15.10 30.90 14.28 30.05Q13.45 29.20 12.55 28.48Q11.65 27.75 10.68 27.27Q9.70 26.80 8.65 26.80L10.60 25.95Q11.35 25.60 12.45 25.10Q13.55 24.60 14.55 24.15Q15.55 23.70 16.30 23.42Q17.05 23.15 17.10 23.20Q17.15 23.30 16.93 23.55Q16.70 23.80 16.33 24.10Q15.95 24.40 15.60 24.65Q15.25 24.90 15.10 24.95Q14.15 25.50 13.33 25.98Q12.50 26.45 11.65 26.85Q12.80 27.30 14.00 28.13Q15.20 28.95 16.30 29.90Q17.40 30.85 18.35 31.73Q19.30 32.60 19.95 33.15M3.75 36.25Q3.90 37.10 4.15 37.90Q4.40 38.70 4.75 39.25Q4.80 39.25 4.83 39.33Q4.85 39.40 4.75 39.40Q4.65 39.40 4.53 39.33Q4.40 39.25 4.30 39.25Q3.65 38.85 3.27 38.27Q2.90 37.70 2.65 36.25Q2.55 35.70 2.55 34.85Q2.55 34 2.60 33.23Q2.65 32.45 2.75 31.90Q2.85 31.35 3.05 31.35Q3.10 31.35 3.17 31.60Q3.25 31.85 3.30 32.17Q3.35 32.50 3.38 32.80Q3.40 33.10 3.40 33.20Q3.50 34.05 3.55 34.80Q3.60 35.55 3.75 36.25M25.65 39.40Q26.45 39.45 26.88 39.42Q27.30 39.40 28.00 39.30Q28.05 39.30 28.25 39.27Q28.45 39.25 28.50 39.30Q28.55 39.40 28.38 39.55Q28.20 39.70 28.10 39.75Q27.30 40 26.63 40.10Q25.95 40.20 24.65 40.05Q24.20 40 23.65 39.85Q23.10 39.70 22.65 39.52Q22.20 39.35 21.95 39.17Q21.70 39 21.85 38.90Q21.95 38.85 22.48 38.98Q23.00 39.10 23.20 39.15Q23.90 39.30 24.50 39.35Q25.10 39.40 25.65 39.40ZM44.15 25.40Q44.30 24.05 44.20 22.55Q44.10 21.05 43.58 19.77Q43.05 18.50 41.98 17.65Q40.90 16.80 39.15 16.80Q36.80 16.80 35.05 18.07Q33.30 19.35 32.05 21.22Q30.80 23.10 30.10 25.23Q29.40 27.35 29.20 29.10Q28.90 31.50 29.13 33.25Q29.35 35 29.95 36.13Q30.55 37.25 31.48 37.80Q32.40 38.35 33.50 38.35Q35.05 38.40 36.78 37.48Q38.50 36.55 40 34.88Q41.50 33.20 42.63 30.77Q43.75 28.35 44.15 25.40M28.05 28.85Q28.25 26.85 29.05 24.45Q29.85 22.05 31.28 20Q32.70 17.95 34.70 16.57Q36.70 15.20 39.35 15.20Q41.35 15.20 42.65 16.15Q43.95 17.10 44.65 18.57Q45.35 20.05 45.55 21.77Q45.75 23.50 45.55 25.05Q45.10 28.65 43.80 31.30Q42.50 33.95 40.75 35.73Q39 37.50 37.05 38.38Q35.10 39.25 33.30 39.25Q31.95 39.25 30.88 38.65Q29.80 38.05 29.08 36.77Q28.35 35.50 28.08 33.52Q27.80 31.55 28.05 28.85M33.65 35.90Q33.40 35.90 33.15 35.73Q32.90 35.55 32.75 35.30Q32.60 35.05 32.55 34.80Q32.50 34.55 32.75 34.45Q32.90 34.40 33.15 34.80Q33.40 35.20 33.70 35.20Q34.20 35.20 34.88 34.55Q35.55 33.90 36.18 33.02Q36.80 32.15 37.28 31.30Q37.75 30.45 37.95 30.05Q38.15 29.65 38.35 29.02Q38.55 28.40 38.73 27.75Q38.90 27.10 39.03 26.48Q39.15 25.85 39.20 25.40Q39.45 23.15 39.10 21.93Q38.75 20.70 37.95 20.70Q37.35 20.70 36.70 21.07Q36.05 21.45 35.48 22.05Q34.90 22.65 34.45 23.38Q34 24.10 33.80 24.85Q33.55 25.70 33.45 25.70Q33.30 25.70 33.30 24.85Q33.45 23.90 33.95 22.97Q34.45 22.05 35.20 21.32Q35.95 20.60 36.85 20.13Q37.75 19.65 38.70 19.65Q39.65 19.65 40.13 20.32Q40.60 21 40.80 21.97Q41 22.95 40.98 23.98Q40.95 25 40.85 25.60Q40.65 26.95 40.23 28.23Q39.80 29.50 39.20 30.80Q38.90 31.40 38.30 32.27Q37.70 33.15 36.93 33.95Q36.15 34.75 35.28 35.33Q34.40 35.90 33.65 35.90M35.25 36.85Q35.30 37.15 34.78 37.35Q34.25 37.55 33.70 37.55Q32.15 37.50 31.33 36.55Q30.50 35.60 30.18 34.30Q29.85 33 29.88 31.60Q29.90 30.20 30 29.25Q30.20 27.60 30.80 25.55Q31.40 23.50 32.50 21.70Q33.60 19.90 35.20 18.67Q36.80 17.45 39 17.45Q40.45 17.45 41.33 18.20Q42.20 18.95 42.63 20.05Q43.05 21.15 43.13 22.43Q43.20 23.70 43.05 24.75Q42.95 25.90 42.70 26.85Q42.45 27.80 42 28.95Q41.85 29.30 41.60 29.75Q41.35 30.20 41.05 30.15Q40.90 30.10 40.98 29.75Q41.05 29.40 41.18 28.88Q41.30 28.35 41.45 27.77Q41.60 27.20 41.65 26.70Q41.75 25.85 41.78 24.57Q41.80 23.30 41.58 22.10Q41.35 20.90 40.75 20.05Q40.15 19.20 38.95 19.20Q37.20 19.20 35.73 20.32Q34.25 21.45 33.15 23.07Q32.05 24.70 31.38 26.48Q30.70 28.25 30.55 29.60Q30.45 30.40 30.50 31.60Q30.55 32.80 30.88 33.98Q31.20 35.15 31.95 36Q32.70 36.85 34 36.90Q34.40 36.95 34.78 36.83Q35.15 36.70 35.25 36.85ZM62.50 25.40Q62.65 24.05 62.55 22.55Q62.45 21.05 61.93 19.77Q61.40 18.50 60.33 17.65Q59.25 16.80 57.50 16.80Q55.15 16.80 53.40 18.07Q51.65 19.35 50.40 21.22Q49.15 23.10 48.45 25.23Q47.75 27.35 47.55 29.10Q47.25 31.50 47.48 33.25Q47.70 35 48.30 36.13Q48.90 37.25 49.83 37.80Q50.75 38.35 51.85 38.35Q53.40 38.40 55.13 37.48Q56.85 36.55 58.35 34.88Q59.85 33.20 60.98 30.77Q62.10 28.35 62.50 25.40M46.40 28.85Q46.60 26.85 47.40 24.45Q48.20 22.05 49.63 20Q51.05 17.95 53.05 16.57Q55.05 15.20 57.70 15.20Q59.70 15.20 61 16.15Q62.30 17.10 63 18.57Q63.70 20.05 63.90 21.77Q64.10 23.50 63.90 25.05Q63.45 28.65 62.15 31.30Q60.85 33.95 59.10 35.73Q57.35 37.50 55.40 38.38Q53.45 39.25 51.65 39.25Q50.30 39.25 49.23 38.65Q48.15 38.05 47.43 36.77Q46.70 35.50 46.43 33.52Q46.15 31.55 46.40 28.85M52 35.90Q51.75 35.90 51.50 35.73Q51.25 35.55 51.10 35.30Q50.95 35.05 50.90 34.80Q50.85 34.55 51.10 34.45Q51.25 34.40 51.50 34.80Q51.75 35.20 52.05 35.20Q52.55 35.20 53.23 34.55Q53.90 33.90 54.53 33.02Q55.15 32.15 55.63 31.30Q56.10 30.45 56.30 30.05Q56.50 29.65 56.70 29.02Q56.90 28.40 57.08 27.75Q57.25 27.10 57.38 26.48Q57.50 25.85 57.55 25.40Q57.80 23.15 57.45 21.93Q57.10 20.70 56.30 20.70Q55.70 20.70 55.05 21.07Q54.40 21.45 53.83 22.05Q53.25 22.65 52.80 23.38Q52.35 24.10 52.15 24.85Q51.90 25.70 51.80 25.70Q51.65 25.70 51.65 24.85Q51.80 23.90 52.30 22.97Q52.80 22.05 53.55 21.32Q54.30 20.60 55.20 20.13Q56.10 19.65 57.05 19.65Q58 19.65 58.48 20.32Q58.95 21 59.15 21.97Q59.35 22.95 59.33 23.98Q59.30 25 59.20 25.60Q59 26.95 58.58 28.23Q58.15 29.50 57.55 30.80Q57.25 31.40 56.65 32.27Q56.05 33.15 55.28 33.95Q54.50 34.75 53.63 35.33Q52.75 35.90 52 35.90M53.60 36.85Q53.65 37.15 53.13 37.35Q52.60 37.55 52.05 37.55Q50.50 37.50 49.68 36.55Q48.85 35.60 48.53 34.30Q48.20 33 48.23 31.60Q48.25 30.20 48.35 29.25Q48.55 27.60 49.15 25.55Q49.75 23.50 50.85 21.70Q51.95 19.90 53.55 18.67Q55.15 17.45 57.35 17.45Q58.80 17.45 59.68 18.20Q60.55 18.95 60.98 20.05Q61.40 21.15 61.48 22.43Q61.55 23.70 61.40 24.75Q61.30 25.90 61.05 26.85Q60.80 27.80 60.35 28.95Q60.20 29.30 59.95 29.75Q59.70 30.20 59.40 30.15Q59.25 30.10 59.33 29.75Q59.40 29.40 59.53 28.88Q59.65 28.35 59.80 27.77Q59.95 27.20 60 26.70Q60.10 25.85 60.13 24.57Q60.15 23.30 59.93 22.10Q59.70 20.90 59.10 20.05Q58.50 19.20 57.30 19.20Q55.55 19.20 54.08 20.32Q52.60 21.45 51.50 23.07Q50.40 24.70 49.73 26.48Q49.05 28.25 48.90 29.60Q48.80 30.40 48.85 31.60Q48.90 32.80 49.23 33.98Q49.55 35.15 50.30 36Q51.05 36.85 52.35 36.90Q52.75 36.95 53.13 36.83Q53.50 36.70 53.60 36.85ZM83.60 15.90Q83.80 16.70 83.68 17.50Q83.55 18.30 83.28 19Q83.00 19.70 82.58 20.22Q82.15 20.75 81.75 21.05Q80.55 21.90 79.05 22.63Q77.55 23.35 76.10 23.90Q76.00 23.95 75.75 24.02Q75.50 24.10 75.40 23.95Q75.35 23.90 75.48 23.70Q75.60 23.50 75.65 23.45Q76.15 22.85 77.00 22.15Q77.85 21.45 78.50 21.05Q78.70 20.90 79.48 20.30Q80.25 19.70 81.08 18.88Q81.90 18.05 82.60 17.20Q83.30 16.35 83.35 15.75Q83.35 15.65 83.38 15.63Q83.40 15.60 83.40 15.55Q83.40 15.50 83.45 15.50Q83.55 15.55 83.58 15.67Q83.60 15.80 83.60 15.90M74.20 11.85Q73.50 14.90 72.35 18.02Q71.20 21.15 69.90 23.85Q69.80 24.10 69.63 24.52Q69.45 24.95 69.30 24.95Q69.20 24.85 69.23 24.42Q69.25 24 69.30 23.85Q69.45 23.10 69.70 21.95Q69.95 20.80 70.28 19.50Q70.60 18.20 70.93 16.95Q71.25 15.70 71.55 14.75Q72.55 11.40 72.85 8.13Q73.15 4.85 72.60 1.85Q72.55 1.65 72.58 1.55Q72.60 1.45 72.60 1.40Q72.85 1.30 73.05 1.70Q73.65 2.50 74.00 3.77Q74.35 5.05 74.48 6.48Q74.60 7.90 74.53 9.32Q74.45 10.75 74.20 11.85M71.30 0.60Q72.30 3.05 72.20 5.82Q72.10 8.60 71.40 11.55Q70.70 14.50 69.68 17.52Q68.65 20.55 67.80 23.50Q67.25 25.35 66.93 27.42Q66.60 29.50 66.60 31.57Q66.60 33.65 67.00 35.60Q67.40 37.55 68.35 39.20Q68.50 39.45 68.33 39.40Q68.15 39.35 68.05 39.25Q66.80 37.70 66.18 35.67Q65.55 33.65 65.43 31.40Q65.30 29.15 65.60 26.80Q65.90 24.45 66.50 22.35Q67.40 19.40 68.33 16.50Q69.25 13.60 69.95 10.85Q70.65 8.10 70.98 5.52Q71.30 2.95 70.95 0.60Q70.95 0.50 70.93 0.38Q70.90 0.25 71.00 0.25Q71.10 0.25 71.18 0.38Q71.25 0.50 71.30 0.60M84.55 38Q84.95 38.10 84.85 38.25Q84.75 38.40 84.60 38.45Q83.05 38.85 81.60 38.60Q80.15 38.35 79.20 37.65Q77.95 36.75 77.03 35.30Q76.10 33.85 75.25 32.55Q75.20 32.45 75.10 32.27Q75.00 32.10 75.05 32Q75.15 31.85 75.33 31.93Q75.50 32 75.55 32.05Q76.20 32.35 77.13 33Q78.05 33.65 78.50 34.20Q78.90 34.65 79.60 35.27Q80.30 35.90 81.13 36.45Q81.95 37 82.85 37.45Q83.75 37.90 84.55 38M86.15 36.90Q86.40 36.95 86.28 37.05Q86.15 37.15 85.95 37.15Q84.35 37.45 83.10 36.83Q81.85 36.20 80.78 35.17Q79.70 34.15 78.68 32.95Q77.65 31.75 76.50 30.80Q75.05 29.65 72.93 29.15Q70.80 28.65 68.35 29.60Q68.10 29.70 68.15 29.55Q68.20 29.40 68.30 29.30Q68.75 29 69.25 28.73Q69.75 28.45 70.20 28.30Q70.80 25.65 71.65 23.02Q72.50 20.40 73.35 17.65Q74.15 15.10 74.80 12.30Q75.45 9.50 75.35 6.35Q75.35 6.05 75.45 6.05Q75.55 6.05 75.58 6.20Q75.60 6.35 75.70 6.45Q76.20 7.50 76.20 9.25Q76.20 11 75.90 13.02Q75.60 15.05 75.10 17.15Q74.60 19.25 74.10 20.95Q75.10 19.90 76.33 19.17Q77.55 18.45 78.78 17.77Q80.00 17.10 81.05 16.25Q82.10 15.40 82.75 14.10Q82.75 14.05 82.78 14Q82.80 13.95 82.85 14.05Q82.85 14.10 82.88 14.20Q82.90 14.30 82.90 14.40Q82.80 16 81.95 17.07Q81.10 18.15 79.90 19Q78.70 19.85 77.30 20.60Q75.90 21.35 74.70 22.25Q73.25 23.35 72.75 24.90Q72.25 26.45 71.90 27.95Q72.15 27.60 72.43 27.17Q72.70 26.75 72.95 26.38Q73.20 26 73.40 25.80Q73.60 25.60 73.70 25.70Q73.75 25.75 73.68 26.02Q73.60 26.30 73.50 26.65Q73.40 27 73.30 27.35Q73.20 27.70 73.15 27.90Q73.40 27.95 73.58 27.95Q73.75 27.95 73.90 28Q75.05 26.35 76.60 25.23Q78.15 24.10 79.85 23.10Q81.00 22.40 82.08 21.60Q83.15 20.80 84.00 19.50Q84.05 19.35 84.15 19.45Q84.20 19.50 84.18 19.57Q84.15 19.65 84.20 19.80Q84.25 20.85 83.60 21.80Q82.95 22.75 82.00 23.55Q81.05 24.35 80.05 25Q79.05 25.65 78.50 26.10Q77.70 26.70 76.75 27.23Q75.80 27.75 74.95 28.20Q76.45 28.70 77.75 29.80Q78.90 30.70 79.90 31.82Q80.90 32.95 81.90 34Q82.90 35.05 83.93 35.85Q84.95 36.65 86.15 36.90M70.45 32.15Q70.35 32.45 70.18 33Q70.00 33.55 69.90 34.05Q69.80 34.30 69.78 34.55Q69.75 34.80 69.65 34.75Q69.50 34.70 69.43 34.35Q69.35 34 69.35 33.75Q69.35 33.40 69.35 32.95Q69.35 32.50 69.43 32.13Q69.50 31.75 69.73 31.50Q69.95 31.25 70.40 31.25Q71.05 31.30 71.83 31.73Q72.60 32.15 73.40 32.83Q74.20 33.50 75.00 34.33Q75.80 35.15 76.60 36Q77.45 36.95 78.48 37.92Q79.50 38.90 80.95 39.30Q81.15 39.40 81.15 39.48Q81.15 39.55 80.90 39.55Q79.90 39.55 78.88 39.13Q77.85 38.70 76.88 38.08Q75.90 37.45 75.08 36.75Q74.25 36.05 73.65 35.50Q72.80 34.70 71.98 33.80Q71.15 32.90 70.45 32.15M69.85 39.20Q69.95 39.35 69.83 39.40Q69.70 39.45 69.45 39.25Q68.85 38.70 68.35 37.92Q67.85 37.15 67.60 35.55Q67.40 34.60 67.33 33.52Q67.25 32.45 67.50 31.60Q67.75 30.75 68.45 30.17Q69.15 29.60 70.50 29.60Q70.85 29.60 71.30 29.70Q71.75 29.80 72.13 29.92Q72.50 30.05 72.73 30.23Q72.95 30.40 72.80 30.55Q72.75 30.70 72.28 30.65Q71.80 30.60 71.70 30.60Q71.10 30.50 70.53 30.48Q69.95 30.45 69.50 30.60Q69.05 30.75 68.78 31.17Q68.50 31.60 68.50 32.40Q68.50 34.10 68.80 35.60Q69.00 36.60 69.23 37.48Q69.45 38.35 69.85 39.20ZM93.05 22.75Q93.20 22.10 93.23 21.25Q93.25 20.40 93.10 19.50Q92.95 18.60 92.58 17.77Q92.20 16.95 91.60 16.35Q91.30 16.15 91.25 16.15Q91.05 16.15 91.25 16.45Q91.55 17.10 91.48 18.47Q91.40 19.85 91.15 21.32Q90.90 22.80 90.63 23.98Q90.35 25.15 90.30 25.40Q89.95 26.30 89.68 27.65Q89.40 29 89.40 29.85Q89.35 29.95 89.35 30.25Q89.35 30.55 89.50 30.60Q89.55 30.60 89.70 30.35Q89.85 30.10 89.95 30Q90.85 28.40 91.68 26.50Q92.50 24.60 93.05 22.75M93.25 30.30Q93.45 29.40 93.90 27.98Q94.35 26.55 94.65 25.02Q94.95 23.50 94.95 22.02Q94.95 20.55 94.35 19.60Q94.15 19.40 94.05 19.40Q93.95 19.40 94.00 19.60Q94.00 21.50 93.58 23.13Q93.15 24.75 92.65 26.30Q91.80 28.85 91.10 31.27Q90.40 33.70 90.50 36.25Q90.50 36.40 90.53 36.58Q90.55 36.75 90.70 36.75Q90.80 36.75 90.85 36.65Q90.90 36.55 91.00 36.35Q91.50 35.15 92.15 33.52Q92.80 31.90 93.25 30.30M89.70 39.25Q88.75 38.25 88.25 37.02Q87.75 35.80 87.55 34.52Q87.35 33.25 87.45 31.95Q87.55 30.65 87.85 29.50Q88.30 27.70 89.00 25.90Q89.70 24.10 90.20 22.32Q90.70 20.55 90.78 18.82Q90.85 17.10 90.05 15.45Q89.90 15.20 89.85 15.20Q89.80 15.20 89.80 15.27Q89.80 15.35 89.85 15.40Q90.00 16.90 89.65 18.50Q89.30 20.10 88.75 21.77Q88.20 23.45 87.53 25.23Q86.85 27 86.40 28.85Q86.05 30.20 85.93 31.60Q85.80 33 86.10 34.38Q86.40 35.75 87.20 37Q88.00 38.25 89.50 39.30Q89.60 39.40 89.75 39.42Q89.90 39.45 89.70 39.25M90.10 37.35Q89.95 36.95 89.78 36.35Q89.60 35.75 89.50 35.20Q89.40 35 89.25 34.45Q89.10 33.90 89.00 33.90Q88.80 33.90 88.73 34.25Q88.65 34.60 88.65 35.13Q88.65 35.65 88.73 36.23Q88.80 36.80 88.95 37.20Q89.25 38.20 89.68 38.60Q90.10 39 90.80 39.25Q91.10 39.40 91.25 39.40Q91.30 39.40 91.28 39.33Q91.25 39.25 91.20 39.25Q90.85 38.85 90.58 38.40Q90.30 37.95 90.10 37.35M94.00 11.50Q93.75 11.50 93.23 11.42Q92.70 11.35 92.70 10.95Q92.70 10.80 93.15 10.57Q93.60 10.35 94.15 9.92Q94.70 9.50 95.15 8.82Q95.60 8.15 95.60 7.10Q95.60 5.80 95.10 5.15Q95.00 5 94.85 4.82Q94.70 4.65 94.75 4.60Q94.85 4.60 94.98 4.67Q95.10 4.75 95.15 4.80Q96.15 5.35 96.68 6.23Q97.20 7.10 97.20 7.90Q97.20 9.50 96.45 10.50Q95.70 11.50 94.00 11.50M92.15 9.50Q91.55 9.75 91.55 9.20Q91.55 8.80 91.85 8.42Q92.15 8.05 92.43 7.60Q92.70 7.15 92.80 6.57Q92.90 6 92.50 5.15Q92.40 4.90 92.15 4.60Q91.90 4.30 92.00 4.25Q92.10 4.20 92.43 4.32Q92.75 4.45 92.85 4.50Q93.70 4.90 94.13 5.70Q94.55 6.50 94.55 7.10Q94.55 8.05 93.78 8.67Q93.00 9.30 92.15 9.50M90.70 6.80Q90.70 6.55 90.85 6.23Q91.00 5.90 91.35 5.90Q91.60 5.90 91.75 6.23Q91.90 6.55 91.90 6.80Q91.90 7 91.75 7.32Q91.60 7.65 91.35 7.65Q91.00 7.65 90.85 7.35Q90.70 7.05 90.70 6.80ZM110.45 18.85Q110.85 19.35 111.08 20.10Q111.30 20.85 111.25 21.72Q111.20 22.60 110.85 23.55Q110.50 24.50 109.75 25.40Q108.30 27.10 106.58 28.02Q104.85 28.95 103.45 28.95Q102.60 28.95 103.45 28.65Q103.90 28.50 104.53 28.17Q105.15 27.85 105.85 27.38Q106.55 26.90 107.28 26.25Q108 25.60 108.60 24.75Q109.60 23.35 109.78 22.02Q109.95 20.70 109.25 20Q108.65 19.40 107.85 19.32Q107.05 19.25 105.45 20.20Q104 21.05 102.85 22.30Q101.70 23.55 100.70 24.95Q100.15 25.65 99.98 25.65Q99.80 25.65 100.10 24.75Q100.70 23 101.78 21.50Q102.85 20 104.35 18.95Q105.45 18.20 106.38 17.90Q107.30 17.60 108.08 17.65Q108.85 17.70 109.45 18.02Q110.05 18.35 110.45 18.85M113.15 22.35Q112.95 23.55 112.53 24.38Q112.10 25.20 111.58 25.77Q111.05 26.35 110.53 26.70Q110 27.05 109.60 27.35Q109.40 27.50 109.30 27.40Q109.20 27.30 109.45 27.05Q110.35 26.30 111.28 25.02Q112.20 23.75 112.25 22.20Q112.25 19.55 110.95 18.15Q109.65 16.75 107.70 16.92Q105.75 17.10 103.65 18.45Q102.30 19.30 101.28 20.43Q100.25 21.55 99.50 22.82Q98.75 24.10 98.28 25.45Q97.80 26.80 97.60 28.15Q97.40 29.45 97.23 30.95Q97.05 32.45 97.23 33.90Q97.40 35.35 98.15 36.67Q98.90 38 100.50 38.95Q100.75 39.10 101.03 39.15Q101.30 39.20 101.30 39.25Q101.30 39.35 101.05 39.38Q100.80 39.40 100.50 39.30Q99.25 39.05 98.38 38.27Q97.50 37.50 96.95 36.50Q96.40 35.50 96.10 34.40Q95.80 33.30 95.75 32.40Q95.45 28.45 96.85 24.60Q97.15 23.80 97.63 22.80Q98.10 21.80 98.80 20.77Q99.50 19.75 100.45 18.77Q101.40 17.80 102.60 17.05Q103.75 16.35 105 16Q106.25 15.65 107.50 15.67Q108.75 15.70 109.85 16.13Q110.95 16.55 111.80 17.40Q112.55 18.20 112.98 19.45Q113.40 20.70 113.15 22.35M108.60 20.55Q109.20 21.25 108.75 22.72Q108.30 24.20 106.65 25.70Q105.75 26.55 104.90 27.07Q104.05 27.60 102.75 28Q102.20 29.90 102.05 31.75Q101.90 33.60 102.15 34.75Q102.20 35.20 102.48 35.63Q102.75 36.05 103.28 36.27Q103.80 36.50 104.65 36.45Q105.50 36.40 106.75 35.90Q107.10 35.75 107.18 35.83Q107.25 35.90 106.85 36.15Q105.95 36.85 104.95 37.13Q103.95 37.40 103.08 37.30Q102.20 37.20 101.58 36.70Q100.95 36.20 100.75 35.35Q100.35 33.60 100.40 31.70Q100.45 29.80 100.98 27.95Q101.50 26.10 102.48 24.48Q103.45 22.85 104.90 21.70Q107.60 19.55 108.60 20.55M108.10 36.50Q107.75 37 107.23 37.48Q106.70 37.95 106.03 38.33Q105.35 38.70 104.63 38.95Q103.90 39.20 103.15 39.20Q101.85 39.20 100.73 38.63Q99.60 38.05 99 36.30Q98.90 36.10 98.90 35.92Q98.90 35.75 99 35.75Q99.20 35.65 99.40 35.88Q99.60 36.10 99.80 36.35Q100.35 37 101.23 37.50Q102.10 38 102.90 38Q104.40 38 105.50 37.55Q106.60 37.10 107.60 36.35Q107.85 36.20 108.18 36.05Q108.50 35.90 108.10 36.50M107.40 21.90Q107.20 21.50 105.95 22.55Q104.80 23.45 104.13 24.63Q103.45 25.80 102.95 27.20Q103.90 26.75 104.70 26.17Q105.50 25.60 106.20 25.05Q106.95 24.40 107.30 23.35Q107.65 22.30 107.40 21.90Z"/></g></g></svg>